<?xml version="1.0" standalone="no"?>
<!DOCTYPE svg PUBLIC "-//W3C//DTD SVG 20010904//EN"
 "http://www.w3.org/TR/2001/REC-SVG-20010904/DTD/svg10.dtd">
<svg version="1.0" xmlns="http://www.w3.org/2000/svg"
 width="260.000000pt" height="260.000000pt" viewBox="0 0 260.000000 260.000000"
 preserveAspectRatio="xMidYMid meet">
<metadata>
Created by potrace 1.11, written by Peter Selinger 2001-2013
</metadata>
<g transform="translate(0.000000,260.000000) scale(0.100000,-0.100000)"
fill="#000000" stroke="none">
<path d="M1134 2590 c-304 -43 -561 -174 -770 -391 -175 -182 -280 -380 -335
-629 -31 -138 -33 -389 -5 -520 55 -253 163 -462 333 -641 188 -197 409 -322
673 -380 138 -31 389 -33 520 -5 253 55 462 163 641 333 197 188 322 409 380
673 31 138 33 389 5 520 -55 253 -165 466 -336 644 -247 258 -544 391 -900
401 -80 2 -172 0 -206 -5z m360 -795 c37 -8 87 -26 111 -39 60 -36 127 -114
156 -183 24 -57 24 -63 27 -425 l3 -368 -95 0 -95 0 -3 323 -3 322 -30 60
c-56 112 -160 160 -298 136 -117 -19 -205 -80 -251 -174 l-26 -51 0 -308 0
-308 -100 0 -100 0 0 505 0 505 100 0 100 0 0 -86 0 -86 58 53 c132 122 271
161 446 124z"/>
</g>
</svg>
