<?xml version="1.0" standalone="no"?>
<!DOCTYPE svg PUBLIC "-//W3C//DTD SVG 20010904//EN"
 "http://www.w3.org/TR/2001/REC-SVG-20010904/DTD/svg10.dtd">
<svg version="1.0" xmlns="http://www.w3.org/2000/svg"
 width="157.000000pt" height="157.000000pt" viewBox="0 0 157.000000 157.000000"
 preserveAspectRatio="xMidYMid meet">
<metadata>
Created by potrace 1.11, written by Peter Selinger 2001-2013
</metadata>
<g transform="translate(0.000000,157.000000) scale(0.100000,-0.100000)"
fill="#000000" stroke="none">
<path d="M585 1516 c-16 -7 -39 -23 -49 -35 -11 -11 -24 -21 -30 -21 -12 -1
-66 -45 -66 -55 0 -3 -22 -33 -50 -66 -27 -33 -50 -65 -50 -72 0 -7 -12 -23
-25 -36 -14 -13 -25 -28 -25 -35 0 -7 -13 -32 -28 -57 -15 -24 -34 -64 -42
-89 -7 -25 -19 -56 -26 -70 -7 -14 -28 -57 -48 -96 -46 -92 -116 -279 -122
-324 -3 -19 -9 -51 -14 -72 -28 -103 25 -284 112 -379 49 -54 181 -77 284 -49
83 22 205 112 351 258 29 29 53 58 53 63 0 6 9 24 20 40 12 15 28 54 36 86 8
32 19 62 23 66 5 5 2 25 -5 45 -7 20 -13 44 -14 53 0 19 65 49 117 54 18 1 39
8 46 13 7 6 35 14 62 18 27 3 60 15 73 25 16 12 30 15 45 10 21 -8 35 -6 137
23 30 9 80 16 111 16 63 0 85 15 95 67 5 26 1 33 -24 52 -22 15 -40 20 -64 16
-18 -2 -53 -7 -78 -9 -25 -3 -72 -15 -105 -26 -33 -11 -136 -39 -230 -60 -93
-22 -192 -46 -220 -54 -113 -34 -267 -77 -290 -81 -5 -2 -41 -12 -80 -24 -38
-13 -104 -24 -146 -26 -108 -5 -121 -13 -122 -85 0 -8 5 -28 13 -43 13 -27 16
-28 74 -23 62 6 95 13 179 39 26 8 47 13 47 10 0 -3 6 -1 13 5 11 10 114 39
207 59 14 3 31 10 38 16 12 9 40 12 68 8 4 -1 0 -8 -7 -17 -8 -9 -14 -29 -15
-45 -2 -35 -60 -140 -122 -218 -32 -40 -76 -79 -137 -119 -125 -82 -185 -105
-253 -100 -49 4 -59 9 -89 44 -63 70 -83 123 -83 219 0 83 25 190 52 223 6 6
8 12 4 12 -4 0 0 13 8 29 8 15 17 39 20 52 2 13 10 38 16 54 7 17 22 57 34 90
36 101 142 269 207 329 32 30 69 58 81 62 13 3 39 20 59 35 20 16 41 29 46 29
6 0 18 18 28 39 20 46 15 84 -17 119 -24 25 -40 27 -83 8z"/>
</g>
</svg>
