<svg width="157" height="149" viewBox="0 0 157 149" fill="none" xmlns="http://www.w3.org/2000/svg">
<path d="M156.375 61.0312C156.229 61.9062 155.974 62.8906 155.609 63.9844C155.318 65.0781 154.88 66.099 154.297 67.0469C153.786 67.9219 153.13 68.6875 152.328 69.3438C151.526 69.9271 150.578 70.2188 149.484 70.2188C148.682 70.2188 147.88 70.1458 147.078 70C146.276 69.7812 145.438 69.6719 144.562 69.6719C144.198 69.6719 143.797 69.8177 143.359 70.1094C142.995 70.3281 142.63 70.4375 142.266 70.4375C141.901 70.4375 141.573 70.401 141.281 70.3281C141.062 70.1823 140.771 70.1094 140.406 70.1094C140.188 70.1094 139.786 70.1823 139.203 70.3281C138.62 70.474 138 70.6198 137.344 70.7656C136.688 70.9115 136.068 71.0938 135.484 71.3125C134.901 71.4583 134.5 71.5677 134.281 71.6406C132.312 72.2969 130.344 72.8802 128.375 73.3906C126.406 73.901 124.365 74.2292 122.25 74.375C121.812 74.2292 121.156 74.0833 120.281 73.9375C119.406 73.7188 118.75 73.6094 118.312 73.6094C117.438 73.6094 116.854 73.974 116.562 74.7031C116.344 75.4323 115.87 75.9792 115.141 76.3438C114.266 76.8542 113.172 77.1458 111.859 77.2188C110.547 77.2917 109.234 77.401 107.922 77.5469C106.609 77.6927 105.37 77.9844 104.203 78.4219C103.109 78.7865 102.307 79.5156 101.797 80.6094C101.432 80.5365 101.031 80.5 100.594 80.5C100.229 80.4271 99.8281 80.3906 99.3906 80.3906C97.0573 80.3906 94.8698 80.8646 92.8281 81.8125C90.7865 82.6875 88.7083 83.4896 86.5938 84.2188C86.9583 84.875 87.2135 85.6771 87.3594 86.625C87.5052 87.5729 87.651 88.5208 87.7969 89.4688C87.9427 90.3438 88.125 91.2188 88.3438 92.0938C88.6354 92.8958 89.1094 93.5156 89.7656 93.9531C89.7656 94.3906 89.6562 94.7552 89.4375 95.0469C89.2917 95.3385 89.1094 95.5938 88.8906 95.8125L88.125 96.5781C87.9062 96.7969 87.7604 97.125 87.6875 97.5625C87.4688 98.4375 87.3594 99.349 87.3594 100.297C87.3594 101.172 86.849 101.828 85.8281 102.266C85.901 102.484 85.9375 102.885 85.9375 103.469C85.9375 104.198 85.8281 104.891 85.6094 105.547C85.3906 106.203 85.3177 106.932 85.3906 107.734C84.151 109.12 83.0938 110.542 82.2188 112C81.4167 113.458 80.7969 115.026 80.3594 116.703C77.6615 119.401 74.8906 122.099 72.0469 124.797C69.276 127.568 66.3958 130.229 63.4062 132.781C60.4896 135.333 57.4635 137.74 54.3281 140C51.1927 142.333 47.9479 144.375 44.5938 146.125H43.8281C42.151 146.125 40.8385 146.417 39.8906 147C38.9427 147.583 37.7396 148.094 36.2812 148.531C35.1875 148.24 33.875 148.094 32.3438 148.094C31.4688 148.094 30.5573 148.13 29.6094 148.203C28.7344 148.276 27.8229 148.312 26.875 148.312C25.6354 148.312 24.5052 148.167 23.4844 147.875C22.5365 147.583 21.5885 147.255 20.6406 146.891C19.7656 146.526 18.8542 146.161 17.9062 145.797C16.9583 145.432 15.9375 145.177 14.8438 145.031C10.3229 140.51 6.75 135.224 4.125 129.172C1.5 123.193 0.1875 117.031 0.1875 110.688C0.1875 107.771 0.588542 104.927 1.39062 102.156C2.19271 99.3125 2.59375 96.4688 2.59375 93.625C3.90625 91 5.03646 88.3021 5.98438 85.5312C7.00521 82.7604 8.02604 79.9896 9.04688 77.2188C10.0677 74.4479 11.1615 71.75 12.3281 69.125C13.5677 66.4271 15.026 63.875 16.7031 61.4688C17.0677 59.5729 17.651 57.9323 18.4531 56.5469C19.2552 55.1615 20.1302 53.6302 21.0781 51.9531C21.0781 50.349 21.4062 48.8906 22.0625 47.5781C22.7917 46.1927 23.2292 44.6615 23.375 42.9844C24.5417 41.8906 25.4896 40.651 26.2188 39.2656C26.9479 37.8802 27.6406 36.4583 28.2969 35C28.9531 33.5417 29.6823 32.1562 30.4844 30.8438C31.3594 29.4583 32.526 28.2917 33.9844 27.3438C34.1302 26.8333 34.2031 26.2865 34.2031 25.7031C34.276 25.0469 34.4583 24.5365 34.75 24.1719L37.0469 21.6562C37.776 20.7083 38.4323 19.7604 39.0156 18.8125C39.6719 17.7917 40.3646 16.8802 41.0938 16.0781C41.5312 15.6406 42.0052 15.276 42.5156 14.9844C43.026 14.6927 43.4635 14.3646 43.8281 14C44.1927 13.6354 44.3021 13.1615 44.1562 12.5781C44.0833 11.9948 44.2292 11.5208 44.5938 11.1562C44.7396 11.0104 44.9583 10.8646 45.25 10.7188C45.5417 10.5729 45.7969 10.4271 46.0156 10.2812C46.9635 9.625 47.7656 8.96875 48.4219 8.3125C49.0781 7.65625 49.9896 7.18229 51.1562 6.89062C52.1771 6.08854 53.0885 5.28646 53.8906 4.48438C54.7656 3.68229 55.6406 2.95312 56.5156 2.29688C57.3906 1.64062 58.3385 1.13021 59.3594 0.765625C60.3802 0.328125 61.6562 0.109375 63.1875 0.109375C63.4792 0.109375 63.7708 0.145833 64.0625 0.21875C64.3542 0.21875 64.6458 0.21875 64.9375 0.21875C67.9271 2.98958 69.7865 6.38021 70.5156 10.3906C69.7135 11.4115 69.0573 12.5052 68.5469 13.6719C68.1094 14.8385 67.599 16.0052 67.0156 17.1719C65.776 17.6094 64.6094 18.2656 63.5156 19.1406C62.4219 19.9427 61.3281 20.7812 60.2344 21.6562C59.2135 22.5312 58.1198 23.2969 56.9531 23.9531C55.8594 24.6094 54.6198 24.9375 53.2344 24.9375C52.651 25.4479 51.7031 26.2865 50.3906 27.4531C49.151 28.5469 47.8385 29.7135 46.4531 30.9531C45.1406 32.1927 43.901 33.3594 42.7344 34.4531C41.6406 35.5469 40.9479 36.3125 40.6562 36.75C40.4375 37.1146 40.2552 37.4427 40.1094 37.7344C39.9635 38.026 39.8177 38.3542 39.6719 38.7188L36.8281 43.5312C35.224 46.3021 33.5833 49.0365 31.9062 51.7344C30.2292 54.3594 28.7708 57.1302 27.5312 60.0469C26.9479 61.3594 26.474 62.6719 26.1094 63.9844C25.7448 65.2969 25.3802 66.6823 25.0156 68.1406C24.8698 68.5781 24.6875 69.0156 24.4688 69.4531C24.25 69.8906 24.0677 70.2917 23.9219 70.6562C23.1198 72.1875 22.4635 73.6094 21.9531 74.9219C21.4427 76.2344 21.151 77.7656 21.0781 79.5156C19.2552 83.599 17.5417 87.7188 15.9375 91.875C14.4062 95.9583 13.2396 100.188 12.4375 104.562C12.875 106.021 13.0573 107.516 12.9844 109.047C12.9844 110.505 12.9844 111.964 12.9844 113.422C12.9844 115.245 13.0938 116.74 13.3125 117.906C13.6042 119.146 13.9688 120.24 14.4062 121.188C14.9167 122.208 15.4635 123.229 16.0469 124.25C16.6302 125.344 17.25 126.62 17.9062 128.078C19 128.953 19.9844 129.865 20.8594 130.812C21.7344 131.833 22.5729 132.927 23.375 134.094C26.1458 135.479 28.9531 136.172 31.7969 136.172C33.8385 136.172 35.9167 135.844 38.0312 135.188C40.1458 134.531 42.1875 133.693 44.1562 132.672C46.1979 131.724 48.1667 130.667 50.0625 129.5C51.9583 128.333 53.7812 127.203 55.5312 126.109C58.5938 124.286 61.2552 122.318 63.5156 120.203C65.776 118.089 67.8177 115.865 69.6406 113.531C71.5365 111.198 73.2865 108.719 74.8906 106.094C76.4948 103.396 78.1719 100.552 79.9219 97.5625C79.9948 97.1979 80.1406 96.7604 80.3594 96.25L81.0156 94.6094C81.2344 94.026 81.4167 93.5156 81.5625 93.0781C81.7812 92.5677 81.8906 92.2396 81.8906 92.0938C81.8906 91.5104 81.7448 91.1094 81.4531 90.8906C81.2344 90.599 81.125 90.3073 81.125 90.0156C81.125 89.4323 81.2708 89.0312 81.5625 88.8125C81.8542 88.5938 82.1823 88.375 82.5469 88.1562C82.9844 87.9375 83.349 87.6823 83.6406 87.3906C84.0052 87.099 84.1875 86.5521 84.1875 85.75C84.0417 85.6771 83.7865 85.6406 83.4219 85.6406C83.0573 85.6406 82.6927 85.6771 82.3281 85.75C81.9635 85.8229 81.599 85.8594 81.2344 85.8594C80.3594 85.8594 79.6302 85.5677 79.0469 84.9844C78.6823 85.1302 78.3177 85.3854 77.9531 85.75C77.5885 86.0417 77.224 86.3698 76.8594 86.7344C76.5677 87.099 76.276 87.4271 75.9844 87.7188C75.6927 88.0104 75.4375 88.1562 75.2188 88.1562C74.8542 88.1562 74.5625 88.0833 74.3438 87.9375C74.1979 87.7917 73.9792 87.7188 73.6875 87.7188C72.4479 87.7188 71.3542 88.0104 70.4062 88.5938C69.4583 89.1771 68.4375 89.651 67.3438 90.0156C67.125 90.0156 66.9062 90.0156 66.6875 90.0156C66.4688 89.9427 66.25 89.9062 66.0312 89.9062C65.2292 89.9062 64.4271 90.0521 63.625 90.3438C62.8958 90.5625 62.1667 90.8177 61.4375 91.1094C60.7812 91.401 60.0885 91.6562 59.3594 91.875C58.6302 92.0938 57.901 92.1667 57.1719 92.0938C55.5677 92.6771 54.0729 93.2969 52.6875 93.9531C51.375 94.6094 49.8438 94.8646 48.0938 94.7188C47.5833 94.9375 47.0365 95.1927 46.4531 95.4844C45.9427 95.7031 45.4323 95.9948 44.9219 96.3594C44.4844 96.5052 44.1562 96.5781 43.9375 96.5781C43.5729 96.5781 43.2812 96.3958 43.0625 96.0312C42.4792 96.6875 41.7135 97.1615 40.7656 97.4531C39.8177 97.6719 38.8333 97.8906 37.8125 98.1094C36.7917 98.2552 35.8073 98.474 34.8594 98.7656C33.9844 98.9844 33.2917 99.4583 32.7812 100.188C31.9792 99.5312 31.0312 99.2031 29.9375 99.2031C28.8438 99.2031 27.7865 99.4219 26.7656 99.8594C25.7448 100.224 24.651 100.406 23.4844 100.406C23.0469 100.406 22.7552 100.333 22.6094 100.188C22.3177 99.3854 21.9896 98.5833 21.625 97.7812C21.2604 96.9792 20.6771 96.3958 19.875 96.0312C19.7292 95.2292 19.5833 94.4635 19.4375 93.7344C19.3646 92.9323 19.3281 92.1667 19.3281 91.4375C19.3281 89.4688 19.9115 87.6823 21.0781 86.0781C22.099 85.7135 23.1198 85.4219 24.1406 85.2031C25.2344 84.9115 26.2917 84.5833 27.3125 84.2188C28.1146 84.3646 28.9167 84.474 29.7188 84.5469C30.5208 84.6198 31.3229 84.6562 32.125 84.6562C35.1146 84.6562 38.0312 84.2917 40.875 83.5625C43.7188 82.7604 46.526 81.9219 49.2969 81.0469C51.9219 80.2448 54.5833 79.5156 57.2812 78.8594C59.9792 78.2031 62.6771 77.474 65.375 76.6719C67.9271 76.0156 70.4427 75.2865 72.9219 74.4844C75.401 73.6094 77.9896 73.0625 80.6875 72.8438C82.4375 71.6042 84.5521 70.7656 87.0312 70.3281C89.5833 69.8906 91.9167 69.4167 94.0312 68.9062C97.3854 68.1042 100.703 67.3021 103.984 66.5C107.266 65.625 110.62 64.8594 114.047 64.2031C117.839 63.401 121.521 62.4167 125.094 61.25C128.74 60.0833 132.385 58.8438 136.031 57.5312H137.125C138.365 57.5312 139.641 57.3854 140.953 57.0938C142.266 56.8021 143.578 56.6562 144.891 56.6562C145.255 56.6562 145.547 56.6927 145.766 56.7656C146.057 56.7656 146.349 56.7656 146.641 56.7656C146.859 56.7656 147.406 56.6198 148.281 56.3281C149.156 55.9635 149.776 55.7083 150.141 55.5625C151.089 56.5833 152.146 57.4948 153.312 58.2969C154.479 59.099 155.5 60.0104 156.375 61.0312Z" fill="black"/>
</svg>
