<svg width="77" height="13" viewBox="0 0 77 13" fill="none" xmlns="http://www.w3.org/2000/svg">
<path d="M5.78601 2.88806C6.65868 2.88806 7.36701 3.05806 7.91101 3.39806C8.46634 3.73806 8.86868 4.19706 9.11801 4.77506C9.37868 5.34172 9.50901 5.97072 9.50901 6.66206V12.0001H7.75801V6.86606C7.75801 6.17472 7.53701 5.60239 7.09501 5.14906C6.66434 4.69572 6.06368 4.48039 5.29301 4.50306C4.73768 4.50306 4.23901 4.62772 3.79701 4.87706C3.35501 5.12639 3.00934 5.44372 2.76001 5.82906C2.51068 6.20306 2.38601 6.58272 2.38601 6.96806V12.0001H0.63501V3.07506H2.38601V4.62206C2.74868 4.15739 3.21901 3.75506 3.79701 3.41506C4.37501 3.06372 5.03801 2.88806 5.78601 2.88806Z" fill="#141414"/>
<path d="M27.0203 10.8271H27.0033C26.7087 11.0537 26.3347 11.2747 25.8813 11.4901C25.4393 11.6941 24.9463 11.8584 24.4023 11.9831C23.8697 12.1077 23.3257 12.1701 22.7703 12.1701C21.6823 12.1701 20.7247 11.9774 19.8973 11.5921C19.0813 11.1954 18.441 10.6571 17.9763 9.97706C17.523 9.28572 17.2963 8.50372 17.2963 7.63106C17.2963 6.63372 17.54 5.78372 18.0273 5.08106C18.5147 4.36706 19.1607 3.82306 19.9653 3.44906C20.77 3.06372 21.654 2.87106 22.6173 2.87106C23.5013 2.87106 24.306 3.05806 25.0313 3.43206C25.7567 3.79472 26.3347 4.29906 26.7653 4.94506C27.196 5.59106 27.4113 6.34472 27.4113 7.20606L27.3943 8.05606H19.0813C19.2173 8.82672 19.6423 9.43872 20.3563 9.89206C21.0703 10.3341 21.96 10.5551 23.0253 10.5551C23.8187 10.5551 24.4647 10.4361 24.9633 10.1981C25.4733 9.96006 25.887 9.73339 26.2043 9.51806L27.0203 10.8271ZM22.6173 4.48606C21.7447 4.48606 20.9853 4.65039 20.3393 4.97906C19.7047 5.30772 19.2967 5.86872 19.1153 6.66206H25.6263V6.44106C25.581 6.05572 25.411 5.71572 25.1163 5.42106C24.8217 5.12639 24.4533 4.89972 24.0113 4.74106C23.5693 4.57106 23.1047 4.48606 22.6173 4.48606Z" fill="#141414"/>
<path d="M44.9944 7.52906C44.9944 8.43572 44.7621 9.24039 44.2974 9.94306C43.8441 10.6344 43.2207 11.1784 42.4274 11.5751C41.6341 11.9717 40.7217 12.1701 39.6904 12.1701C38.6591 12.1701 37.7411 11.9717 36.9364 11.5751C36.1431 11.1784 35.5141 10.6344 35.0494 9.94306C34.5961 9.24039 34.3694 8.43572 34.3694 7.52906C34.3694 6.62239 34.5961 5.82339 35.0494 5.13206C35.5141 4.42939 36.1431 3.87972 36.9364 3.48306C37.7411 3.08639 38.6591 2.88806 39.6904 2.88806C40.7217 2.88806 41.6341 3.08639 42.4274 3.48306C43.2207 3.87972 43.8441 4.42939 44.2974 5.13206C44.7621 5.82339 44.9944 6.62239 44.9944 7.52906ZM43.2094 7.52906C43.2207 6.92839 43.0677 6.40139 42.7504 5.94806C42.4444 5.48339 42.0251 5.12639 41.4924 4.87706C40.9597 4.61639 40.3591 4.48606 39.6904 4.48606C39.0331 4.48606 38.4324 4.61639 37.8884 4.87706C37.3444 5.12639 36.9137 5.48339 36.5964 5.94806C36.2904 6.40139 36.1431 6.92839 36.1544 7.52906C36.1431 8.11839 36.2904 8.64539 36.5964 9.11006C36.9137 9.56339 37.3444 9.92039 37.8884 10.1811C38.4324 10.4417 39.0331 10.5721 39.6904 10.5721C40.3591 10.5721 40.9597 10.4417 41.4924 10.1811C42.0364 9.92039 42.4614 9.56339 42.7674 9.11006C43.0734 8.64539 43.2207 8.11839 43.2094 7.52906Z" fill="#141414"/>
<path d="M55.8351 12.0001H54.0841V4.77506H51.6531V3.07506H54.0841V0.508057H55.8351V3.07506H58.6741V4.77506H55.8351V12.0001Z" fill="#141414"/>
<path d="M76.0652 7.52906C76.0652 8.43572 75.8329 9.24039 75.3682 9.94306C74.9149 10.6344 74.2915 11.1784 73.4982 11.5751C72.7049 11.9717 71.7925 12.1701 70.7612 12.1701C69.7299 12.1701 68.8119 11.9717 68.0072 11.5751C67.2139 11.1784 66.5849 10.6344 66.1202 9.94306C65.6669 9.24039 65.4402 8.43572 65.4402 7.52906C65.4402 6.62239 65.6669 5.82339 66.1202 5.13206C66.5849 4.42939 67.2139 3.87972 68.0072 3.48306C68.8119 3.08639 69.7299 2.88806 70.7612 2.88806C71.7925 2.88806 72.7049 3.08639 73.4982 3.48306C74.2915 3.87972 74.9149 4.42939 75.3682 5.13206C75.8329 5.82339 76.0652 6.62239 76.0652 7.52906ZM74.2802 7.52906C74.2915 6.92839 74.1385 6.40139 73.8212 5.94806C73.5152 5.48339 73.0959 5.12639 72.5632 4.87706C72.0305 4.61639 71.4299 4.48606 70.7612 4.48606C70.1039 4.48606 69.5032 4.61639 68.9592 4.87706C68.4152 5.12639 67.9845 5.48339 67.6672 5.94806C67.3612 6.40139 67.2139 6.92839 67.2252 7.52906C67.2139 8.11839 67.3612 8.64539 67.6672 9.11006C67.9845 9.56339 68.4152 9.92039 68.9592 10.1811C69.5032 10.4417 70.1039 10.5721 70.7612 10.5721C71.4299 10.5721 72.0305 10.4417 72.5632 10.1811C73.1072 9.92039 73.5322 9.56339 73.8382 9.11006C74.1442 8.64539 74.2915 8.11839 74.2802 7.52906Z" fill="#141414"/>
</svg>
