<svg width="74" height="58" viewBox="0 0 74 58" fill="none" xmlns="http://www.w3.org/2000/svg">
<path d="M37.6445 9.38886L65.0329 19.9904L37.6445 37.9679L10.2561 19.9904L37.6445 9.38886Z" stroke="#141414" stroke-width="3"/>
<path d="M37.6445 30.592L10.2561 19.9904L37.6445 2.0129L65.0329 19.9904L37.6445 30.592Z" stroke="#141414" stroke-width="3"/>
<path d="M14.0036 55.6708V57.3895H4.38253V45.5223H6.49972V55.6708H14.0036ZM26.9002 57.5458C25.7257 57.5458 24.714 57.4286 23.865 57.1942C23.0187 56.9598 22.3364 56.5562 21.8182 55.9833C21.3025 55.4104 21.0031 54.6356 20.9197 53.6591H23.1072C23.1671 54.5106 23.5486 55.1135 24.2517 55.4677C24.9575 55.8192 25.852 55.995 26.9353 55.995C28.0369 55.995 28.9106 55.8231 29.5564 55.4794C30.2023 55.1356 30.5252 54.5874 30.5252 53.8348C30.5252 53.3218 30.3767 52.9429 30.0799 52.6981C29.7856 52.4507 29.4002 52.2932 28.9236 52.2255C28.4471 52.1552 27.7856 52.1109 26.9392 52.0927H26.8572C25.7374 52.0692 24.7973 51.9976 24.0369 51.8778C23.2791 51.7554 22.6163 51.4585 22.0486 50.9872C21.4809 50.5158 21.1971 49.7984 21.1971 48.8348C21.1971 48.0223 21.4275 47.3583 21.8885 46.8427C22.3494 46.327 22.9874 45.952 23.8025 45.7177C24.6176 45.4833 25.5747 45.3661 26.6736 45.3661C27.8325 45.3661 28.8273 45.4937 29.658 45.7489C30.4913 46.0041 31.1398 46.3934 31.6033 46.9169C32.0695 47.4377 32.326 48.0927 32.3728 48.8817H30.2752C30.1372 47.5432 28.9392 46.8739 26.6814 46.8739C25.6476 46.8739 24.8247 47.021 24.2127 47.3153C23.6007 47.607 23.2947 48.0796 23.2947 48.7333C23.2947 49.1942 23.4484 49.5354 23.7557 49.7567C24.0656 49.9781 24.4601 50.1213 24.9392 50.1864C25.4184 50.2515 26.1007 50.2997 26.9861 50.3309L27.3221 50.3427C28.4366 50.3869 29.3585 50.4833 30.0877 50.6317C30.8169 50.7802 31.4327 51.1018 31.9353 51.5966C32.4379 52.0913 32.6892 52.8309 32.6892 53.8153C32.6892 54.7294 32.4497 55.4624 31.9705 56.0145C31.4939 56.564 30.8286 56.9572 29.9744 57.1942C29.1228 57.4286 28.0981 57.5458 26.9002 57.5458ZM40.9413 45.5223H48.4608C49.3592 45.5223 50.1106 45.6656 50.7147 45.952C51.3189 46.2385 51.7668 46.6265 52.0585 47.1161C52.3527 47.6031 52.4999 48.1499 52.4999 48.7567C52.4999 49.4156 52.3592 49.9781 52.078 50.4442C51.7994 50.9104 51.4165 51.2671 50.9296 51.5145C50.4426 51.7619 49.8892 51.8999 49.2694 51.9286C49.6001 52.1057 49.8671 52.3453 50.0702 52.6473C50.2759 52.9468 50.4322 53.2671 50.5389 53.6083C50.6483 53.9468 50.7642 54.3882 50.8866 54.9325C50.9751 55.3231 51.0533 55.6486 51.121 55.9091C51.1913 56.1669 51.2811 56.426 51.3905 56.6864C51.4999 56.9442 51.6327 57.1786 51.7889 57.3895H49.5585C49.4257 57.2072 49.3124 57.0002 49.2186 56.7684C49.1275 56.5341 49.052 56.2984 48.9921 56.0614C48.9322 55.8244 48.8658 55.5262 48.7928 55.1669C48.6626 54.5236 48.5298 54.0119 48.3944 53.6317C48.259 53.2515 48.0389 52.9325 47.7342 52.6747C47.4296 52.4143 47.0077 52.2841 46.4686 52.2841H43.0585V57.3895H40.9413V45.5223ZM48.1405 50.7177C48.9322 50.7177 49.5194 50.564 49.9022 50.2567C50.285 49.9468 50.4764 49.5054 50.4764 48.9325C50.4764 48.3622 50.285 47.9234 49.9022 47.6161C49.5194 47.3088 48.9322 47.1552 48.1405 47.1552H43.0585V50.7177H48.1405ZM70.3027 47.2333H65.7636V57.3895H63.666V47.2333H59.1269V45.5223H70.3027V47.2333Z" fill="#141414"/>
</svg>
