<svg width="76" height="32" viewBox="0 0 76 32" fill="none" xmlns="http://www.w3.org/2000/svg">
<path fill-rule="evenodd" clip-rule="evenodd" d="M31.2668 16.3695C26.9694 10.9779 21.0879 7.08316 14.4637 5.22658C14.1733 5.1452 13.8815 5.06773 13.5883 4.99423L11.6609 4.51095L11.719 4.71993C11.9553 5.57044 12.1648 6.42643 12.3474 7.28664C13.5909 13.1429 13.5912 19.1949 12.3494 25.0499C12.1514 25.9831 11.922 26.9112 11.6609 27.8328L14.1057 27.2072C14.2257 27.1765 14.3456 27.1451 14.4652 27.1131C21.0372 25.3523 26.9072 21.601 31.2668 16.3695ZM15.0696 24.3075C19.9552 22.7706 24.3726 20.0266 27.9137 16.3332C24.4115 12.5202 19.9893 9.66837 15.0719 8.05091C16.0513 13.4259 16.0503 18.9339 15.0696 24.3075Z" fill="#141414"/>
<path d="M45.9113 25.0107H43.5236V11.9924H37.7597V25.0107H35.1895V11.9924H32.5889V9.81767H35.1895V8.60102C35.1895 7.45533 35.4379 6.48201 35.9347 5.68104C36.4416 4.88008 37.126 4.27682 37.9878 3.87127C38.8496 3.46572 39.8128 3.26294 40.8773 3.26294C41.9115 3.26294 42.8291 3.38967 43.63 3.64314C44.431 3.88648 45.1965 4.25654 45.9265 4.75334L44.7098 6.56312C43.6554 5.76215 42.4184 5.36167 40.999 5.36167C38.8394 5.36167 37.7597 6.45666 37.7597 8.64664V9.81767H45.9113V25.0107Z" fill="#141414"/>
<path d="M54.2922 25.2692C53.2884 25.2692 52.3607 25.0918 51.5091 24.7369C50.6574 24.3821 49.9325 23.8954 49.3343 23.2769C48.7361 22.6483 48.3103 21.9487 48.0568 21.1782L50.1404 20.2657C50.4344 21.0768 50.921 21.7561 51.6003 22.3036C52.2796 22.841 53.1364 23.1096 54.1705 23.1096C54.8498 23.1096 55.4277 23.0032 55.9043 22.7903C56.3808 22.5672 56.7356 22.2681 56.9688 21.893C57.2122 21.5178 57.3338 21.1022 57.3338 20.6459C57.3338 20.139 57.1767 19.7334 56.8624 19.4293C56.5582 19.115 56.1729 18.8716 55.7066 18.6993C55.2402 18.5269 54.5964 18.3393 53.7751 18.1366C52.7308 17.873 51.8842 17.6144 51.2353 17.3609C50.5966 17.0973 50.0491 16.6918 49.5929 16.1443C49.1366 15.5867 48.9085 14.8414 48.9085 13.9087C48.9085 12.986 49.1467 12.2003 49.6233 11.5514C50.0998 10.8924 50.7436 10.3956 51.5547 10.061C52.3658 9.72642 53.2682 9.55913 54.2618 9.55913C55.4784 9.55913 56.5531 9.83795 57.4859 10.3956C58.4288 10.9532 59.1791 11.744 59.7367 12.7681L57.7445 13.8478C57.3795 13.1787 56.8979 12.6413 56.2997 12.2358C55.7116 11.8201 55.0019 11.6122 54.1705 11.6122C53.3189 11.6122 52.6396 11.7947 52.1326 12.1597C51.6257 12.5247 51.3722 12.9962 51.3722 13.5741C51.3722 14.0202 51.5192 14.3852 51.8133 14.6691C52.1073 14.9428 52.4773 15.1659 52.9235 15.3383C53.3696 15.5005 53.9779 15.683 54.7484 15.8857C55.8333 16.1798 56.7154 16.4738 57.3947 16.7678C58.074 17.0517 58.6569 17.4978 59.1436 18.1061C59.6303 18.7043 59.8736 19.5104 59.8736 20.5242C59.8736 21.5483 59.6201 22.4202 59.1132 23.1401C58.6062 23.8498 57.9269 24.3821 57.0753 24.7369C56.2338 25.0918 55.3061 25.2692 54.2922 25.2692Z" fill="#141414"/>
<path d="M62.5667 3.52148H65.1825V12.1293C65.6894 11.2878 66.3434 10.6491 67.1443 10.2131C67.9554 9.77712 68.8375 9.55913 69.7906 9.55913C70.9768 9.55913 71.9704 9.82781 72.7714 10.3652C73.5825 10.8924 74.1857 11.6072 74.5811 12.5095C74.9766 13.4119 75.1844 14.4258 75.2047 15.5512V25.0107H72.5889V16.0226C72.5889 13.275 71.4584 11.9012 69.1974 11.9012C68.3458 11.9012 67.6158 12.104 67.0075 12.5095C66.4093 12.9151 65.953 13.4778 65.6387 14.1976C65.3346 14.9074 65.1825 15.7286 65.1825 16.6614V25.0107H62.5667V3.52148Z" fill="#141414"/>
</svg>
