<svg width="66" height="26" viewBox="0 0 66 26" fill="none" xmlns="http://www.w3.org/2000/svg">
<path d="M9.36123 7.80422C11.0328 7.80422 12.312 8.23958 13.1989 9.1103C14.0857 9.98102 14.5291 11.271 14.5291 12.9802V15.6569H10.5222V13.8025C10.5222 13.0286 10.4201 12.4266 10.2158 11.9966C10.017 11.5666 9.73747 11.271 9.37736 11.1097C9.01724 10.9431 8.56845 10.8598 8.03096 10.8598C7.43435 10.8598 6.87537 10.9861 6.35401 11.2387C5.83265 11.486 5.40267 11.9133 5.06405 12.5206C4.72544 13.128 4.55344 13.9342 4.54807 14.9393V25.388H0.379883V8.14283H3.90309L4.46745 11.271C4.99955 10.1261 5.68485 9.26348 6.52332 8.683C7.36717 8.09714 8.31314 7.80422 9.36123 7.80422Z" fill="#141414"/>
<path d="M33.9682 17.358H19.5932C19.6201 18.519 19.8619 19.4945 20.3188 20.2846C20.781 21.0747 21.4206 21.6659 22.2376 22.0583C23.0546 22.4453 24.0167 22.6388 25.1239 22.6388C26.4192 22.6388 27.4835 22.3727 28.3166 21.8406C29.155 21.3085 29.7436 20.5506 30.0822 19.567H33.9521C33.5812 20.8785 32.9927 21.9938 32.1864 22.9129C31.3802 23.832 30.3832 24.5307 29.1953 25.0091C28.0075 25.4821 26.6638 25.7185 25.1642 25.7185C23.1648 25.7185 21.4395 25.3665 19.9883 24.6624C18.5424 23.9529 17.4352 22.9263 16.6666 21.5826C15.898 20.2389 15.5137 18.6318 15.5137 16.7614C15.5137 14.9017 15.9034 13.3 16.6827 11.9563C17.4621 10.6072 18.5666 9.57791 19.9963 8.86843C21.4314 8.15358 23.1164 7.79615 25.0513 7.79615C26.9003 7.79615 28.4912 8.11327 29.8242 8.7475C31.1625 9.38173 32.1945 10.3438 32.9201 11.6338C33.6511 12.9237 34.0166 14.5308 34.0166 16.455L33.9682 17.358ZM25.0594 10.6341C23.4255 10.6341 22.1543 11.0103 21.246 11.7628C20.343 12.5099 19.8109 13.6655 19.6496 15.2296H29.9129C29.8914 13.6977 29.4641 12.5502 28.631 11.787C27.8033 11.0184 26.6127 10.6341 25.0594 10.6341Z" fill="#141414"/>
<path d="M44.2082 25.7105C42.7678 25.7105 41.4133 25.5439 40.1449 25.2106C38.8818 24.8774 37.8122 24.2888 36.9361 23.445C36.0654 22.6011 35.5816 21.4617 35.4849 20.0266H39.774C39.7471 21.0478 40.1314 21.7869 40.9269 22.2437C41.7277 22.6952 42.7893 22.9209 44.1115 22.9209C45.3262 22.9209 46.2937 22.7328 47.0139 22.3566C47.7341 21.9803 48.0942 21.3703 48.0942 20.5265C48.0942 19.903 47.89 19.4246 47.4815 19.0914C47.0784 18.7528 46.557 18.5163 45.9174 18.3819C45.2778 18.2475 44.3963 18.1239 43.273 18.011C41.7466 17.8498 40.4996 17.6509 39.5321 17.4144C38.57 17.1726 37.7396 16.7049 37.0409 16.0116C36.3475 15.3182 36.0009 14.3105 36.0009 12.9882C36.0009 11.8219 36.3368 10.8491 37.0086 10.0697C37.6859 9.29036 38.605 8.71525 39.7659 8.34439C40.9269 7.96815 42.2437 7.78003 43.7164 7.78003C45.0548 7.78003 46.291 7.94665 47.4251 8.27989C48.5592 8.60775 49.5078 9.15867 50.271 9.93265C51.0343 10.7066 51.4831 11.7252 51.6174 12.9882L47.3928 12.9721C47.3928 12.4131 47.2181 11.9428 46.8688 11.5612C46.5194 11.1742 46.0572 10.884 45.4821 10.6905C44.907 10.497 44.2808 10.4003 43.6036 10.4003C42.8995 10.4003 42.2652 10.4836 41.7009 10.6502C41.1365 10.8114 40.685 11.0721 40.3464 11.4322C40.0078 11.787 39.8385 12.2411 39.8385 12.7948C39.8385 13.3269 40.0374 13.738 40.4351 14.0283C40.8382 14.3185 41.3381 14.5254 41.9347 14.6491C42.5313 14.7673 43.3509 14.8829 44.3937 14.9957L45.0951 15.0683C46.5087 15.2296 47.6992 15.4526 48.6667 15.7375C49.6395 16.017 50.4592 16.5195 51.1256 17.2451C51.7975 17.9653 52.1334 18.9839 52.1334 20.3007C52.1334 21.5315 51.7814 22.5528 51.0773 23.3644C50.3785 24.1706 49.4326 24.7645 48.2394 25.1461C47.0515 25.5224 45.7078 25.7105 44.2082 25.7105Z" fill="#141414"/>
<path d="M61.7365 25.6944C60.6239 25.6944 59.6565 25.517 58.8341 25.1622C58.0172 24.8021 57.3829 24.262 56.9314 23.5417C56.4853 22.8161 56.2623 21.9212 56.2623 20.857V10.8114H52.4408V8.14283H56.4235H60.4788H65.5742V10.8114H60.4788V19.8089C60.4788 20.7226 60.6965 21.4133 61.1319 21.8809C61.5726 22.3485 62.1988 22.5823 63.0104 22.5823C63.7575 22.5823 64.6121 22.3915 65.5742 22.0099V25.1219C64.2036 25.5035 62.9244 25.6944 61.7365 25.6944Z" fill="#141414"/>
<line x1="0.115234" y1="2.07935" x2="65.5381" y2="2.07935" stroke="#141414" stroke-width="3"/>
</svg>
