<svg width="76" height="47" viewBox="0 0 76 47" fill="none" xmlns="http://www.w3.org/2000/svg">
<path d="M7.39406 17.8068C8.54357 17.8068 9.53799 18.055 10.3773 18.5513C11.2166 19.0439 11.8589 19.7483 12.3041 20.6642C12.7493 21.5802 12.9719 22.6604 12.9719 23.9048C12.9719 25.1564 12.7475 26.2421 12.2987 27.1617C11.8498 28.0777 11.2057 28.782 10.3664 29.2746C9.53069 29.7636 8.53992 30.0081 7.39406 30.0081C6.75909 30.0081 6.16973 29.9041 5.62599 29.6961C5.0859 29.4881 4.61697 29.2071 4.21921 28.8531C3.82144 28.4992 3.50943 28.0996 3.28317 27.6544L2.96569 29.7837H0.606445V13.1541H3.44191L3.45286 19.8979C3.84333 19.2556 4.37065 18.7465 5.03481 18.3707C5.70263 17.9948 6.48904 17.8068 7.39406 17.8068ZM6.70982 27.8131C7.46522 27.8131 8.10019 27.6544 8.61473 27.3369C9.13292 27.0194 9.52157 26.5687 9.78067 25.9848C10.0398 25.3973 10.1693 24.7039 10.1693 23.9048C10.1693 23.1056 10.0398 22.414 9.78067 21.8302C9.52157 21.2426 9.13292 20.7901 8.61473 20.4726C8.10019 20.1515 7.46522 19.9909 6.70982 19.9909C5.98362 19.9909 5.35412 20.157 4.82133 20.4891C4.29219 20.8211 3.88712 21.2828 3.60613 21.8739C3.32514 22.4651 3.18464 23.1421 3.18464 23.9048C3.18464 24.6711 3.32331 25.3499 3.60066 25.941C3.88165 26.5286 4.28672 26.9884 4.81586 27.3205C5.34865 27.6489 5.97997 27.8131 6.70982 27.8131Z" fill="#141414"/>
<path d="M20.5594 30.0081C19.242 30.0081 18.0852 29.7636 17.089 29.2746C16.0927 28.782 15.3209 28.0777 14.7735 27.1617C14.2298 26.2421 13.9579 25.1601 13.9579 23.9157C13.9579 22.6786 14.2298 21.6021 14.7735 20.6861C15.3172 19.7701 16.0854 19.0677 17.078 18.5787C18.0743 18.0897 19.2347 17.8452 20.5594 17.8452C21.895 17.8452 23.061 18.0897 24.0572 18.5787C25.0534 19.0677 25.8198 19.7701 26.3562 20.6861C26.8963 21.5984 27.1664 22.675 27.1664 23.9157C27.1664 25.1637 26.8963 26.2476 26.3562 27.1672C25.8161 28.0831 25.048 28.7856 24.0517 29.2746C23.0591 29.7636 21.895 30.0081 20.5594 30.0081ZM20.5375 27.9062C21.3367 27.9062 22.0264 27.7419 22.6066 27.4135C23.1869 27.0851 23.6284 26.6216 23.9313 26.0231C24.2378 25.421 24.3911 24.7185 24.3911 23.9157C24.3911 23.1165 24.2378 22.4177 23.9313 21.8192C23.6284 21.2207 23.1869 20.7591 22.6066 20.4343C22.0264 20.1059 21.3367 19.9417 20.5375 19.9417C19.7529 19.9417 19.076 20.1059 18.5067 20.4343C17.9411 20.7591 17.5086 21.2207 17.2094 21.8192C16.9101 22.4177 16.7605 23.1165 16.7605 23.9157C16.7605 24.7185 16.9101 25.421 17.2094 26.0231C17.5086 26.6216 17.9411 27.0851 18.5067 27.4135C19.076 27.7419 19.7529 27.9062 20.5375 27.9062Z" fill="#141414"/>
<path d="M34.6443 30.0081C33.327 30.0081 32.1701 29.7636 31.1739 29.2746C30.1777 28.782 29.4058 28.0777 28.8584 27.1617C28.3147 26.2421 28.0428 25.1601 28.0428 23.9157C28.0428 22.6786 28.3147 21.6021 28.8584 20.6861C29.4022 19.7701 30.1704 19.0677 31.163 18.5787C32.1592 18.0897 33.3197 17.8452 34.6443 17.8452C35.98 17.8452 37.1459 18.0897 38.1422 18.5787C39.1384 19.0677 39.9047 19.7701 40.4412 20.6861C40.9813 21.5984 41.2513 22.675 41.2513 23.9157C41.2513 25.1637 40.9813 26.2476 40.4412 27.1672C39.9011 28.0831 39.1329 28.7856 38.1367 29.2746C37.1441 29.7636 35.98 30.0081 34.6443 30.0081ZM34.6224 27.9062C35.4216 27.9062 36.1113 27.7419 36.6916 27.4135C37.2718 27.0851 37.7134 26.6216 38.0163 26.0231C38.3228 25.421 38.4761 24.7185 38.4761 23.9157C38.4761 23.1165 38.3228 22.4177 38.0163 21.8192C37.7134 21.2207 37.2718 20.7591 36.6916 20.4343C36.1113 20.1059 35.4216 19.9417 34.6224 19.9417C33.8379 19.9417 33.1609 20.1059 32.5916 20.4343C32.026 20.7591 31.5936 21.2207 31.2943 21.8192C30.9951 22.4177 30.8455 23.1165 30.8455 23.9157C30.8455 24.7185 30.9951 25.421 31.2943 26.0231C31.5936 26.6216 32.026 27.0851 32.5916 27.4135C33.1609 27.7419 33.8379 27.9062 34.6224 27.9062Z" fill="#141414"/>
<path d="M48.7293 30.0081C47.4119 30.0081 46.2551 29.7636 45.2588 29.2746C44.2626 28.782 43.4908 28.0777 42.9434 27.1617C42.3997 26.2421 42.1278 25.1601 42.1278 23.9157C42.1278 22.6786 42.3997 21.6021 42.9434 20.6861C43.4871 19.7701 44.2553 19.0677 45.2479 18.5787C46.2441 18.0897 47.4046 17.8452 48.7293 17.8452C50.0649 17.8452 51.2309 18.0897 52.2271 18.5787C53.2233 19.0677 53.9897 19.7701 54.5261 20.6861C55.0662 21.5984 55.3363 22.675 55.3363 23.9157C55.3363 25.1637 55.0662 26.2476 54.5261 27.1672C53.986 28.0831 53.2179 28.7856 52.2216 29.2746C51.229 29.7636 50.0649 30.0081 48.7293 30.0081ZM48.7074 27.9062C49.5066 27.9062 50.1963 27.7419 50.7765 27.4135C51.3568 27.0851 51.7983 26.6216 52.1012 26.0231C52.4077 25.421 52.561 24.7185 52.561 23.9157C52.561 23.1165 52.4077 22.4177 52.1012 21.8192C51.7983 21.2207 51.3568 20.7591 50.7765 20.4343C50.1963 20.1059 49.5066 19.9417 48.7074 19.9417C47.9228 19.9417 47.2459 20.1059 46.6766 20.4343C46.1109 20.7591 45.6785 21.2207 45.3793 21.8192C45.08 22.4177 44.9304 23.1165 44.9304 23.9157C44.9304 24.7185 45.08 25.421 45.3793 26.0231C45.6785 26.6216 46.1109 27.0851 46.6766 27.4135C47.2459 27.7419 47.9228 27.9062 48.7074 27.9062Z" fill="#141414"/>
<path d="M57.198 18.0751H59.7324L59.9131 19.7337C60.2962 19.1279 60.8035 18.6626 61.4348 18.3378C62.0698 18.0094 62.7905 17.8452 63.597 17.8452C64.4765 17.8452 65.241 18.0112 65.8906 18.3433C66.5401 18.6754 67.02 19.1552 67.3302 19.7829C67.6988 19.1516 68.2024 18.6717 68.841 18.3433C69.4796 18.0112 70.2204 17.8452 71.0634 17.8452C71.9063 17.8452 72.649 17.9893 73.2912 18.2776C73.9335 18.5659 74.4335 18.991 74.7911 19.553C75.1487 20.115 75.3275 20.7938 75.3275 21.5893V29.7837H72.4702V22.3009C72.4702 21.7791 72.3753 21.3448 72.1855 20.9981C71.9958 20.6514 71.7385 20.3942 71.4137 20.2263C71.0889 20.0584 70.7203 19.9745 70.308 19.9745C69.819 19.9745 69.3792 20.073 68.9888 20.2701C68.602 20.4672 68.2936 20.7792 68.0637 21.2061C67.8338 21.6294 67.7188 22.1677 67.7188 22.8209V29.7837H64.8615V22.3666C64.8615 21.8302 64.7666 21.3831 64.5768 21.0255C64.3871 20.6679 64.1261 20.4033 63.7941 20.2318C63.4656 20.0603 63.0861 19.9745 62.6555 19.9745C62.1738 19.9745 61.7377 20.0767 61.3472 20.281C60.9604 20.4818 60.6484 20.8029 60.4112 21.2444C60.1776 21.6824 60.0609 22.2443 60.0609 22.9304V29.7837H57.198V18.0751Z" fill="#141414"/>
<path d="M63.8017 15.0498V2.23779H12.5537V15.0498" stroke="#141414" stroke-width="3"/>
<path d="M12.5547 32.3459L12.5547 45.158L63.8027 45.158L63.8027 32.346" stroke="#141414" stroke-width="3"/>
</svg>
