<svg width="44" height="58" viewBox="0 0 44 58" fill="none" xmlns="http://www.w3.org/2000/svg">
<path d="M7.73633 26.2396H9.59348V34.7157H14.0097V36.4499H7.73633V26.2396Z" fill="#141414"/>
<path d="M16.5641 26.2396H23.437V27.9233H18.4212V30.5029H23.0934V32.1866H18.4212V34.7157H23.437V36.4499H16.5641V26.2396Z" fill="#141414"/>
<path d="M7.73633 39.8052H9.59348V48.2812H14.0097V50.0155H7.73633V39.8052Z" fill="#141414"/>
<path d="M19.5332 50.16C18.1927 50.16 17.1983 49.7987 16.55 49.0761C15.9066 48.3487 15.5849 47.3346 15.5849 46.034V39.8052H17.4347V45.8244C17.4347 46.4073 17.4957 46.8842 17.6175 47.2551C17.7443 47.6213 17.9587 47.9031 18.261 48.1006C18.568 48.2933 18.9921 48.3896 19.5332 48.3896C20.0742 48.3896 20.4983 48.2933 20.8054 48.1006C21.1125 47.9079 21.327 47.6261 21.4488 47.2551C21.5707 46.8842 21.6316 46.4073 21.6316 45.8244V39.8052H23.4888V45.9617C23.4888 47.2961 23.1646 48.3294 22.5163 49.0616C21.8729 49.7939 20.8785 50.16 19.5332 50.16Z" fill="#141414"/>
<rect x="1.90137" y="2.31934" width="39.6728" height="53.675" stroke="#141414" stroke-width="3"/>
</svg>
