<svg width="76" height="13" viewBox="0 0 76 13" fill="none" xmlns="http://www.w3.org/2000/svg">
<path d="M5.151 2.88806C6.02367 2.88806 6.732 3.05806 7.276 3.39806C7.83133 3.73806 8.23367 4.19706 8.483 4.77506C8.74367 5.34172 8.874 5.97072 8.874 6.66206V12.0001H7.123V6.86606C7.123 6.17472 6.902 5.60239 6.46 5.14906C6.02933 4.69572 5.42867 4.48039 4.658 4.50306C4.10267 4.50306 3.604 4.62772 3.162 4.87706C2.72 5.12639 2.37433 5.44372 2.125 5.82906C1.87567 6.20306 1.751 6.58272 1.751 6.96806V12.0001H0V3.07506H1.751V4.62206C2.11367 4.15739 2.584 3.75506 3.162 3.41506C3.74 3.06372 4.403 2.88806 5.151 2.88806Z" fill="white"/>
<path d="M26.3853 10.8271H26.3683C26.0737 11.0537 25.6997 11.2747 25.2463 11.4901C24.8043 11.6941 24.3113 11.8584 23.7673 11.9831C23.2347 12.1077 22.6907 12.1701 22.1353 12.1701C21.0473 12.1701 20.0897 11.9774 19.2623 11.5921C18.4463 11.1954 17.806 10.6571 17.3413 9.97706C16.888 9.28572 16.6613 8.50372 16.6613 7.63106C16.6613 6.63372 16.905 5.78372 17.3923 5.08106C17.8797 4.36706 18.5257 3.82306 19.3303 3.44906C20.135 3.06372 21.019 2.87106 21.9823 2.87106C22.8663 2.87106 23.671 3.05806 24.3963 3.43206C25.1217 3.79472 25.6997 4.29906 26.1303 4.94506C26.561 5.59106 26.7763 6.34472 26.7763 7.20606L26.7593 8.05606H18.4463C18.5823 8.82672 19.0073 9.43872 19.7213 9.89206C20.4353 10.3341 21.325 10.5551 22.3903 10.5551C23.1837 10.5551 23.8297 10.4361 24.3283 10.1981C24.8383 9.96006 25.252 9.73339 25.5693 9.51806L26.3853 10.8271ZM21.9823 4.48606C21.1097 4.48606 20.3503 4.65039 19.7043 4.97906C19.0697 5.30772 18.6617 5.86872 18.4803 6.66206H24.9913V6.44106C24.946 6.05572 24.776 5.71572 24.4813 5.42106C24.1867 5.12639 23.8183 4.89972 23.3763 4.74106C22.9343 4.57106 22.4697 4.48606 21.9823 4.48606Z" fill="white"/>
<path d="M44.3594 7.52906C44.3594 8.43572 44.127 9.24039 43.6624 9.94306C43.209 10.6344 42.5857 11.1784 41.7924 11.5751C40.999 11.9717 40.0867 12.1701 39.0554 12.1701C38.024 12.1701 37.106 11.9717 36.3014 11.5751C35.508 11.1784 34.879 10.6344 34.4144 9.94306C33.961 9.24039 33.7344 8.43572 33.7344 7.52906C33.7344 6.62239 33.961 5.82339 34.4144 5.13206C34.879 4.42939 35.508 3.87972 36.3014 3.48306C37.106 3.08639 38.024 2.88806 39.0554 2.88806C40.0867 2.88806 40.999 3.08639 41.7924 3.48306C42.5857 3.87972 43.209 4.42939 43.6624 5.13206C44.127 5.82339 44.3594 6.62239 44.3594 7.52906ZM42.5744 7.52906C42.5857 6.92839 42.4327 6.40139 42.1154 5.94806C41.8094 5.48339 41.39 5.12639 40.8574 4.87706C40.3247 4.61639 39.724 4.48606 39.0554 4.48606C38.398 4.48606 37.7974 4.61639 37.2534 4.87706C36.7094 5.12639 36.2787 5.48339 35.9614 5.94806C35.6554 6.40139 35.508 6.92839 35.5194 7.52906C35.508 8.11839 35.6554 8.64539 35.9614 9.11006C36.2787 9.56339 36.7094 9.92039 37.2534 10.1811C37.7974 10.4417 38.398 10.5721 39.0554 10.5721C39.724 10.5721 40.3247 10.4417 40.8574 10.1811C41.4014 9.92039 41.8264 9.56339 42.1324 9.11006C42.4384 8.64539 42.5857 8.11839 42.5744 7.52906Z" fill="white"/>
<path d="M55.2001 12.0001H53.4491V4.77506H51.0181V3.07506H53.4491V0.508057H55.2001V3.07506H58.0391V4.77506H55.2001V12.0001Z" fill="white"/>
<path d="M75.4302 7.52906C75.4302 8.43572 75.1979 9.24039 74.7332 9.94306C74.2799 10.6344 73.6565 11.1784 72.8632 11.5751C72.0699 11.9717 71.1575 12.1701 70.1262 12.1701C69.0949 12.1701 68.1769 11.9717 67.3722 11.5751C66.5789 11.1784 65.9499 10.6344 65.4852 9.94306C65.0319 9.24039 64.8052 8.43572 64.8052 7.52906C64.8052 6.62239 65.0319 5.82339 65.4852 5.13206C65.9499 4.42939 66.5789 3.87972 67.3722 3.48306C68.1769 3.08639 69.0949 2.88806 70.1262 2.88806C71.1575 2.88806 72.0699 3.08639 72.8632 3.48306C73.6565 3.87972 74.2799 4.42939 74.7332 5.13206C75.1979 5.82339 75.4302 6.62239 75.4302 7.52906ZM73.6452 7.52906C73.6565 6.92839 73.5035 6.40139 73.1862 5.94806C72.8802 5.48339 72.4609 5.12639 71.9282 4.87706C71.3955 4.61639 70.7949 4.48606 70.1262 4.48606C69.4689 4.48606 68.8682 4.61639 68.3242 4.87706C67.7802 5.12639 67.3495 5.48339 67.0322 5.94806C66.7262 6.40139 66.5789 6.92839 66.5902 7.52906C66.5789 8.11839 66.7262 8.64539 67.0322 9.11006C67.3495 9.56339 67.7802 9.92039 68.3242 10.1811C68.8682 10.4417 69.4689 10.5721 70.1262 10.5721C70.7949 10.5721 71.3955 10.4417 71.9282 10.1811C72.4722 9.92039 72.8972 9.56339 73.2032 9.11006C73.5092 8.64539 73.6565 8.11839 73.6452 7.52906Z" fill="white"/>
</svg>
