<svg width="32" height="32" xmlns="http://www.w3.org/2000/svg">
<g>
<rect fill="none" id="canvas_background" height="402" width="582" y="-1" x="-1"/>
</g>
<g>
<path stroke-width="0" fill="#ffffff" id="svg_1" d="m31.044643,16.044643a15,15 0 1 1 -15,-15a15,15 0 0 1 15,15zm-28,0a13,13 0 1 0 13,-13a13,13 0 0 0 -13,13z"/>
<path transform="rotate(-180 16.043495178222656,15.999998092651365) " stroke-width="0" fill="#ffffff" id="svg_2" d="m19.914643,10.41l-5.58,5.59l5.58,5.59a1,1 0 0 1 0,1.41l0,0a1,1 0 0 1 -1.41,0l-6.36,-6.36a0.91,0.91 0 0 1 0,-1.28l6.36,-6.36a1,1 0 0 1 1.41,0l0,0a1,1 0 0 1 0,1.41z"/>
</g>
</svg>