<svg width="85" height="83" viewBox="0 0 85 83" fill="none" xmlns="http://www.w3.org/2000/svg">
<path d="M17.0667 58.0346C9.18766 44.3877 15.6253 25.9202 27.4378 19.1002C39.2504 12.2802 57.0593 6.00547 64.9384 19.6524C72.8174 33.2994 72.7695 55.9564 60.957 62.7763C49.1444 69.5963 24.9458 71.6816 17.0667 58.0346Z" stroke="#141414" stroke-width="3"/>
<path d="M34.8158 42.2781L26.1436 31.7823H31.4096L37.4195 39.2623L43.4881 31.7823H48.7345L40.0622 42.2781L48.7345 52.7937H43.4685L37.4586 45.3336L31.4291 52.7937H26.1436L34.8158 42.2781Z" fill="#141414"/>
<path d="M51.3295 31.7823H55.6754V52.7937H51.3295V31.7823ZM53.5416 27.4174C53.0588 27.4174 52.602 27.2983 52.1713 27.0603C51.7537 26.8089 51.4209 26.4716 51.1729 26.0484C50.925 25.6251 50.801 25.1688 50.801 24.6794C50.801 24.1635 50.925 23.7006 51.1729 23.2905C51.4209 22.8672 51.7537 22.5366 52.1713 22.2985C52.5889 22.0472 53.0457 21.9215 53.5416 21.9215C54.0245 21.9215 54.4748 22.0472 54.8924 22.2985C55.31 22.5366 55.6428 22.8672 55.8908 23.2905C56.1388 23.7006 56.2627 24.1635 56.2627 24.6794C56.2627 25.1688 56.1388 25.6251 55.8908 26.0484C55.6428 26.4716 55.31 26.8089 54.8924 27.0603C54.4748 27.2983 54.0245 27.4174 53.5416 27.4174Z" fill="#141414"/>
</svg>
