<svg width="84" height="72" viewBox="0 0 84 72" fill="none" xmlns="http://www.w3.org/2000/svg">
<mask id="mask0" mask-type="alpha" maskUnits="userSpaceOnUse" x="0" y="0" width="84" height="54">
<path fill-rule="evenodd" clip-rule="evenodd" d="M46.3024 3.38868L4.37623 31.2206L0 28.3156L41.9262 0.483595L46.3024 3.38868Z" fill="white"/>
<path fill-rule="evenodd" clip-rule="evenodd" d="M55.5583 9.02124L13.6321 36.8532L9.25586 33.9481L51.182 6.11616L55.5583 9.02124Z" fill="white"/>
<path fill-rule="evenodd" clip-rule="evenodd" d="M64.8122 14.6537L22.886 42.4856L18.5098 39.5806L60.4359 11.7486L64.8122 14.6537Z" fill="white"/>
<path fill-rule="evenodd" clip-rule="evenodd" d="M74.0719 20.2863L32.1458 48.1182L27.7695 45.2131L69.6957 17.3812L74.0719 20.2863Z" fill="white"/>
<path fill-rule="evenodd" clip-rule="evenodd" d="M83.3278 25.9186L41.4016 53.7505L37.0254 50.8455L78.9516 23.0135L83.3278 25.9186Z" fill="white"/>
</mask>
<g mask="url(#mask0)">
<path d="M61.2951 39.6966C50.1956 46.7769 32.3275 46.8584 21.3857 39.8787C10.4438 32.8989 10.5716 21.5011 21.6711 14.4208C32.7706 7.34053 50.6387 7.25901 61.5806 14.2387C72.5224 21.2184 72.3946 32.6163 61.2951 39.6966Z" fill="#141414"/>
</g>
<path d="M12.5902 55.6577H10.267V53.0679H12.6156V51.3667C12.6156 50.5711 12.7976 49.8856 13.1615 49.3101C13.5339 48.7345 14.029 48.2987 14.6469 48.0024C15.2647 47.6978 15.9376 47.5454 16.6654 47.5454C17.4187 47.5454 18.1846 47.7189 18.9633 48.0659L17.9477 50.6177C17.6007 50.4061 17.2706 50.3003 16.9574 50.3003C16.6189 50.3003 16.3396 50.4146 16.1195 50.6431C15.8995 50.8716 15.7895 51.2186 15.7895 51.6841V53.0679H18.7475V55.6577H15.7895V65.7505H12.5902V55.6577ZM19.8083 53.0679H22.8298V55.2007C23.0921 54.4559 23.5407 53.8719 24.1755 53.4487C24.8102 53.0171 25.4958 52.8013 26.2321 52.8013C26.6638 52.8013 27.0827 52.8774 27.489 53.0298C27.9037 53.1821 28.2591 53.4106 28.5554 53.7153L27.1462 56.2544C26.7145 55.9666 26.2533 55.8228 25.7624 55.8228C25.2546 55.8228 24.7722 55.9878 24.3151 56.3179C23.8666 56.6395 23.5026 57.1431 23.2233 57.8286C22.944 58.5142 22.8044 59.369 22.8044 60.3931V65.7505H19.8083V53.0679ZM29.3877 47.812H32.6377V50.6685H29.3877V47.812ZM29.4638 53.0679H32.5615V65.7505H29.4638V53.0679ZM35.4885 53.0679H38.5862V54.5405C39.0686 53.9565 39.6399 53.5207 40.3 53.2329C40.9602 52.9451 41.6288 52.8013 42.3059 52.8013C43.3554 52.8013 44.2271 53.0509 44.9211 53.5503C45.6152 54.0496 46.123 54.7056 46.4446 55.5181C46.7747 56.3221 46.9397 57.1938 46.9397 58.1333V65.7505H43.842V58.5269C43.842 57.672 43.6305 56.9823 43.2073 56.4575C42.7841 55.9243 42.1874 55.6577 41.4172 55.6577C40.5201 55.6577 39.8219 55.9159 39.3225 56.4321C38.8316 56.9399 38.5862 57.7313 38.5862 58.8062V65.7505H35.4885V53.0679ZM55.313 63.77C56.3117 63.9054 57.1538 64.0832 57.8394 64.3032C58.5334 64.5148 59.1089 64.8787 59.5659 65.395C60.023 65.9028 60.2515 66.6095 60.2515 67.5151C60.2515 68.4377 60.0061 69.2163 59.5152 69.8511C59.0327 70.4943 58.3684 70.9725 57.522 71.2856C56.6756 71.5988 55.715 71.7554 54.6402 71.7554C53.3452 71.7554 52.2408 71.5607 51.3267 71.1714C50.4126 70.7905 49.7228 70.2573 49.2574 69.5718C48.7919 68.8947 48.5591 68.116 48.5591 67.2358C48.5591 67.0412 48.576 66.8592 48.6099 66.6899L50.0826 65.4458C49.2531 64.8872 48.8384 64.062 48.8384 62.9702C48.8384 62.4285 48.9357 61.9461 49.1304 61.5229C49.3335 61.0998 49.6298 60.7189 50.0191 60.3804C49.6805 59.9741 49.4182 59.5256 49.232 59.0347C49.0542 58.5353 48.9654 58.0106 48.9654 57.4604C48.9654 56.5633 49.2023 55.7635 49.6763 55.061C50.1503 54.3501 50.785 53.7957 51.5806 53.3979C52.3762 53.0002 53.2395 52.8013 54.1704 52.8013C54.7206 52.8013 55.2495 52.8732 55.7574 53.0171C56.2652 53.1525 56.7349 53.3514 57.1665 53.6138L59.1089 51.9507L60.7212 53.9185L58.8804 55.4038C59.2443 56.0555 59.4263 56.7918 59.4263 57.6128C59.4263 58.5269 59.1936 59.3351 58.7281 60.0376C58.2626 60.7401 57.6363 61.286 56.8492 61.6753C56.062 62.0562 55.203 62.2466 54.272 62.2466C53.4172 62.2466 52.6131 62.0815 51.8599 61.7515C51.6145 61.9123 51.4917 62.1366 51.4917 62.4243C51.4917 62.7121 51.606 62.9364 51.8345 63.0972C52.0715 63.2495 52.3804 63.3638 52.7613 63.4399C53.1506 63.5076 53.7261 63.5838 54.4878 63.6685C54.6402 63.6938 54.784 63.715 54.9195 63.7319C55.0633 63.7404 55.1945 63.7531 55.313 63.77ZM54.272 55.2007C53.6118 55.2007 53.0956 55.4123 52.7232 55.8354C52.3508 56.2502 52.1646 56.8003 52.1646 57.4858C52.1646 58.1545 52.3465 58.6961 52.7105 59.1108C53.0829 59.5171 53.6034 59.7202 54.272 59.7202C54.9406 59.7202 55.4527 59.5171 55.8081 59.1108C56.1721 58.6961 56.354 58.1545 56.354 57.4858C56.354 56.8003 56.1721 56.2502 55.8081 55.8354C55.4442 55.4123 54.9322 55.2007 54.272 55.2007ZM54.6148 69.3687C55.4527 69.3687 56.1128 69.2417 56.5952 68.9878C57.0777 68.7339 57.3189 68.3573 57.3189 67.8579C57.3189 67.5448 57.2089 67.2993 56.9888 67.1216C56.7772 66.9438 56.4556 66.8042 56.024 66.7026C55.6008 66.6095 54.9999 66.5249 54.2212 66.4487C54.1451 66.4403 53.87 66.4149 53.396 66.3726C52.9221 66.3302 52.4566 66.2625 51.9995 66.1694L51.314 67.312L51.3902 67.6548C51.5679 68.2557 51.9403 68.6916 52.5074 68.9624C53.0829 69.2332 53.7853 69.3687 54.6148 69.3687ZM67.368 66.0044C65.9715 66.0044 64.7908 65.7039 63.826 65.103C62.8611 64.5021 62.1375 63.7065 61.6551 62.7163C61.1811 61.7176 60.9441 60.63 60.9441 59.4536C60.9441 58.3026 61.1727 57.2192 61.6297 56.2036C62.0867 55.188 62.7807 54.367 63.7117 53.7407C64.6512 53.1144 65.8022 52.8013 67.1649 52.8013C68.5529 52.8013 69.687 53.1229 70.5672 53.7661C71.4474 54.4009 72.0779 55.2049 72.4588 56.1782C72.8481 57.1431 73.0428 58.1502 73.0428 59.1997C73.0428 59.4536 73.0301 59.6991 73.0047 59.936C72.9878 60.1646 72.9624 60.3254 72.9285 60.4185H64.2195C64.5158 62.272 65.5737 63.1987 67.3934 63.1987C67.9943 63.1987 68.5444 63.0929 69.0438 62.8813C69.5431 62.6698 70.0086 62.327 70.4402 61.853L72.5731 63.7192C71.879 64.4894 71.1046 65.0649 70.2498 65.4458C69.395 65.8182 68.4344 66.0044 67.368 66.0044ZM69.9959 58.1841C69.9959 57.8794 69.9621 57.6128 69.8943 57.3843C69.742 56.7495 69.4162 56.2629 68.9168 55.9243C68.4259 55.5773 67.8335 55.4038 67.1395 55.4038C65.5314 55.4038 64.5581 56.3306 64.2195 58.1841H69.9959Z" fill="#141414"/>
</svg>
