<svg width="87" height="28" viewBox="0 0 87 28" fill="none" xmlns="http://www.w3.org/2000/svg">
<path d="M5.78216 22.5628C4.84377 22.5628 3.97438 22.3927 3.17398 22.0523C2.38279 21.7027 1.71119 21.2381 1.15919 20.6585C0.616396 20.0697 0.229999 19.4165 0 18.6989L2.67718 17.5121C2.91638 18.1561 3.26138 18.6943 3.71218 19.1267C4.16297 19.5591 4.79777 19.7753 5.61657 19.7753C6.10416 19.7753 6.51356 19.6925 6.84476 19.5269C7.18516 19.3613 7.43815 19.1543 7.60375 18.9059C7.76935 18.6483 7.85215 18.3907 7.85215 18.1331C7.85215 17.8387 7.74175 17.5949 7.52095 17.4017C7.30935 17.2085 7.04256 17.0567 6.72056 16.9463C6.39856 16.8267 5.93396 16.6887 5.32677 16.5323C4.41597 16.2931 3.66618 16.0493 3.07738 15.8009C2.49778 15.5525 1.99179 15.1661 1.55939 14.6417C1.13619 14.1081 0.924594 13.3951 0.924594 12.5027C0.924594 11.5735 1.15919 10.7869 1.62839 10.1429C2.09759 9.49893 2.71858 9.01593 3.49138 8.69393C4.27337 8.37194 5.12437 8.21094 6.04436 8.21094C7.21276 8.21094 8.24315 8.47314 9.13554 8.99753C10.0279 9.52193 10.7409 10.2579 11.2745 11.2055L8.66635 12.6269C8.38115 12.1117 8.02235 11.6931 7.58995 11.3711C7.16676 11.0399 6.61476 10.8743 5.93396 10.8743C5.40037 10.8743 4.96797 10.9893 4.63677 11.2193C4.31477 11.4493 4.15377 11.7299 4.15377 12.0611C4.15377 12.3187 4.25497 12.5349 4.45737 12.7097C4.65977 12.8845 4.91277 13.0271 5.21637 13.1375C5.52917 13.2479 5.96616 13.3859 6.52736 13.5515C7.47495 13.8183 8.25695 14.0943 8.87334 14.3795C9.48974 14.6555 10.0233 15.0833 10.4741 15.6629C10.9341 16.2425 11.1641 17.0107 11.1641 17.9675C11.1641 18.9795 10.9065 19.8305 10.3913 20.5205C9.87614 21.2105 9.20914 21.7257 8.39035 22.0661C7.57155 22.3973 6.70216 22.5628 5.78216 22.5628Z" fill="#141414"/>
<path d="M13.366 8.50074H16.8436V9.88073C17.3036 9.31953 17.8786 8.90093 18.5686 8.62494C19.2678 8.34894 20.0038 8.21094 20.7766 8.21094C22.0094 8.21094 23.0674 8.53754 23.9506 9.19073C24.843 9.84393 25.5192 10.7179 25.9792 11.8127C26.4484 12.8983 26.683 14.0897 26.683 15.3869C26.683 16.6933 26.4484 17.8939 25.9792 18.9887C25.5192 20.0743 24.8384 20.9437 23.9368 21.5969C23.0444 22.2409 21.9726 22.5628 20.7214 22.5628C19.9394 22.5628 19.2126 22.4295 18.541 22.1627C17.8694 21.8959 17.3036 21.4773 16.8436 20.9069V28H13.366V8.50074ZM19.9348 19.5131C21.0388 19.5131 21.8714 19.1313 22.4326 18.3677C23.003 17.5949 23.2882 16.6013 23.2882 15.3869C23.2882 14.1725 23.0076 13.1927 22.4464 12.4475C21.8852 11.6931 21.048 11.3159 19.9348 11.3159C18.8216 11.3159 17.9752 11.6931 17.3956 12.4475C16.8252 13.1927 16.54 14.1725 16.54 15.3869C16.54 16.6105 16.8252 17.6041 17.3956 18.3677C17.9752 19.1313 18.8216 19.5131 19.9348 19.5131Z" fill="#141414"/>
<path d="M34.4876 22.5628C32.9696 22.5628 31.6863 22.2363 30.6375 21.5831C29.5887 20.9299 28.8021 20.0651 28.2777 18.9887C27.7625 17.9031 27.5049 16.7209 27.5049 15.4421C27.5049 14.1909 27.7533 13.0133 28.2501 11.9093C28.7469 10.8053 29.5013 9.91293 30.5133 9.23213C31.5345 8.55134 32.7857 8.21094 34.2668 8.21094C35.7756 8.21094 37.0084 8.56054 37.9652 9.25973C38.922 9.94973 39.6074 10.8237 40.0214 11.8817C40.4446 12.9305 40.6562 14.0253 40.6562 15.1661C40.6562 15.4421 40.6424 15.7089 40.6148 15.9665C40.5964 16.2149 40.5688 16.3897 40.532 16.4909H31.0653C31.3873 18.5057 32.5373 19.5131 34.5152 19.5131C35.1684 19.5131 35.7664 19.3981 36.3092 19.1681C36.852 18.9381 37.358 18.5655 37.8272 18.0503L40.1456 20.0789C39.3912 20.9161 38.5494 21.5417 37.6202 21.9557C36.691 22.3605 35.6468 22.5628 34.4876 22.5628ZM37.3442 14.0621C37.3442 13.7309 37.3074 13.4411 37.2338 13.1927C37.0682 12.5027 36.714 11.9737 36.1712 11.6057C35.6376 11.2285 34.9936 11.0399 34.2392 11.0399C32.4913 11.0399 31.4333 12.0473 31.0653 14.0621H37.3442Z" fill="#141414"/>
<path d="M48.1021 22.5628C46.6669 22.5628 45.4433 22.2317 44.4313 21.5693C43.4285 20.9069 42.6741 20.0329 42.1681 18.9473C41.6713 17.8525 41.4229 16.6749 41.4229 15.4145C41.4229 14.1633 41.6713 12.9903 42.1681 11.8955C42.6741 10.7915 43.4239 9.90373 44.4175 9.23213C45.4203 8.55134 46.6393 8.21094 48.0745 8.21094C49.4729 8.21094 50.6873 8.55594 51.7177 9.24593C52.7481 9.92673 53.5209 10.9387 54.036 12.2819L50.8345 13.5239C50.6505 12.8431 50.3101 12.2957 49.8133 11.8817C49.3257 11.4677 48.7461 11.2607 48.0745 11.2607C47.3385 11.2607 46.7267 11.4585 46.2391 11.8541C45.7607 12.2405 45.4065 12.7511 45.1765 13.3859C44.9557 14.0115 44.8453 14.6877 44.8453 15.4145C44.8453 16.1597 44.9557 16.8405 45.1765 17.4569C45.3973 18.0733 45.7469 18.5701 46.2253 18.9473C46.7129 19.3245 47.3293 19.5131 48.0745 19.5131C48.7369 19.5131 49.3165 19.3153 49.8133 18.9197C50.3101 18.5149 50.6505 17.9813 50.8345 17.3189L53.898 18.4781C53.4381 19.7661 52.6975 20.7689 51.6763 21.4865C50.6551 22.2041 49.4637 22.5628 48.1021 22.5628Z" fill="#141414"/>
<path d="M60.5159 22.5628C59.6235 22.5628 58.8553 22.3973 58.2113 22.0661C57.5674 21.7349 57.0706 21.2657 56.721 20.6585C56.3806 20.0421 56.2104 19.3153 56.2104 18.4781V11.3159H53.9886V8.50074H56.2656L59.5775 8.50076L63.0275 8.50074V11.3159H59.5775V17.8847C59.5775 18.5103 59.7109 18.9519 59.9777 19.2095C60.2537 19.4671 60.6309 19.5959 61.1093 19.5959C61.4313 19.5959 61.7625 19.5499 62.1029 19.4579C62.4433 19.3567 62.7515 19.2371 63.0275 19.0991V22.1489C62.7331 22.2593 62.3559 22.3559 61.8959 22.4387C61.4451 22.5214 60.9851 22.5628 60.5159 22.5628Z" fill="#141414"/>
<path d="M65.0914 8.50074H68.3758V10.8191C68.661 10.0095 69.1486 9.37473 69.8386 8.91473C70.5286 8.44554 71.2738 8.21094 72.0742 8.21094C72.5434 8.21094 72.9988 8.29374 73.4404 8.45934C73.8912 8.62494 74.2776 8.87333 74.5996 9.20453L73.0678 11.9645C72.5986 11.6517 72.0972 11.4953 71.5636 11.4953C71.0116 11.4953 70.4872 11.6747 69.9904 12.0335C69.5028 12.3831 69.1072 12.9305 68.8036 13.6757C68.5 14.4209 68.3482 15.3501 68.3482 16.4633V22.2869H65.0914V8.50074Z" fill="#141414"/>
<path d="M80.6379 22.5628C79.1199 22.5628 77.8365 22.2363 76.7877 21.5831C75.7389 20.9299 74.9523 20.0651 74.4279 18.9887C73.9127 17.9031 73.6551 16.7209 73.6551 15.4421C73.6551 14.1909 73.9035 13.0133 74.4003 11.9093C74.8971 10.8053 75.6515 9.91293 76.6635 9.23213C77.6847 8.55134 78.9359 8.21094 80.4171 8.21094C81.9259 8.21094 83.1587 8.56054 84.1155 9.25973C85.0722 9.94973 85.7576 10.8237 86.1716 11.8817C86.5948 12.9305 86.8064 14.0253 86.8064 15.1661C86.8064 15.4421 86.7926 15.7089 86.765 15.9665C86.7466 16.2149 86.719 16.3897 86.6822 16.4909H77.2155C77.5375 18.5057 78.6875 19.5131 80.6655 19.5131C81.3187 19.5131 81.9167 19.3981 82.4595 19.1681C83.0023 18.9381 83.5083 18.5655 83.9775 18.0503L86.2958 20.0789C85.5414 20.9161 84.6996 21.5417 83.7705 21.9557C82.8413 22.3605 81.7971 22.5628 80.6379 22.5628ZM83.4945 14.0621C83.4945 13.7309 83.4577 13.4411 83.3841 13.1927C83.2185 12.5027 82.8643 11.9737 82.3215 11.6057C81.7879 11.2285 81.1439 11.0399 80.3895 11.0399C78.6415 11.0399 77.5835 12.0473 77.2155 14.0621H83.4945Z" fill="#141414"/>
<line x1="54.6426" y1="1.78369" x2="86.2246" y2="1.78369" stroke="#141414" stroke-width="3"/>
</svg>
