<svg width="74" height="48" viewBox="0 0 74 48" fill="none" xmlns="http://www.w3.org/2000/svg">
<path d="M8.06923 26.3918C6.5532 26.3918 5.17776 26.0299 3.94292 25.306C2.72031 24.5821 1.75445 23.576 1.04533 22.2877C0.348444 20.9994 0 19.527 0 17.8706C0 16.202 0.348444 14.7296 1.04533 13.4536C1.75445 12.1775 2.7142 11.1898 3.92458 10.4905C5.13497 9.79111 6.47373 9.44143 7.94086 9.44143C9.18792 9.44143 10.3922 9.74203 11.5537 10.3432C12.7274 10.9322 13.6871 11.8463 14.4329 13.0855C15.1909 14.3124 15.5822 15.84 15.6066 17.6682H3.81455C3.81455 18.8092 3.9796 19.9196 4.3097 20.9994C4.65204 22.0668 5.20832 22.9625 5.97857 23.6864C6.74881 24.398 7.74524 24.7538 8.96785 24.7538C9.97039 24.7538 10.8874 24.4716 11.7187 23.9072C12.5501 23.3306 13.2287 22.5392 13.7544 21.5331L15.0014 22.2693C14.3412 23.533 13.3998 24.5391 12.1772 25.2876C10.9546 26.0237 9.58527 26.3918 8.06923 26.3918ZM12.1222 16.2694C12.0488 15.3738 11.8532 14.5272 11.5353 13.7296C11.2175 12.9198 10.759 12.2573 10.1599 11.742C9.56082 11.2144 8.82725 10.9506 7.9592 10.9506C7.09114 10.9506 6.35758 11.2144 5.7585 11.742C5.15942 12.2696 4.70094 12.9383 4.38306 13.748C4.07741 14.5456 3.89402 15.386 3.83289 16.2694H12.1222Z" fill="#141414"/>
<path d="M16.9916 24.4226H17.6335C18.0981 24.4226 18.5443 24.2876 18.9722 24.0177C19.4124 23.7355 19.8586 23.3674 20.311 22.9134L24.8591 18.3123L20.1276 13.2511C19.1373 12.0364 18.3365 11.4291 17.7252 11.4291H16.9182V9.95675H25.9595V11.4291H24.7857C24.1989 11.4291 23.9055 11.5886 23.9055 11.9076C23.9055 12.153 24.0827 12.5027 24.4373 12.9567L27.3349 16.0854L30.3058 13.0303C30.7215 12.5886 30.9294 12.2266 30.9294 11.9444C30.9294 11.6009 30.6115 11.4291 29.9757 11.4291H29.2605V9.95675H35.4408V11.4291H34.7072C34.3405 11.4291 33.9492 11.5763 33.5335 11.8708C33.1301 12.1653 32.6838 12.5702 32.1948 13.0855L28.1968 17.0792L32.8 21.9748C33.4235 22.7355 33.992 23.3367 34.5055 23.7784C35.019 24.2078 35.4164 24.4226 35.6976 24.4226H36.3027V25.8765H27.3166V24.4226H28.4903C29.1994 24.4226 29.5539 24.2385 29.5539 23.8704C29.5539 23.625 29.395 23.306 29.0771 22.9134L25.8127 19.3062L22.42 22.7478C21.9432 23.2876 21.7048 23.6925 21.7048 23.9625C21.7048 24.2692 22.0104 24.4226 22.6217 24.4226H23.7588V25.8765H16.9916V24.4226Z" fill="#141414"/>
<path d="M42.3825 4.74832C41.918 4.74832 41.5084 4.63176 41.1538 4.39864C40.8115 4.15325 40.5425 3.85264 40.3469 3.49682C40.1635 3.12874 40.0718 2.75452 40.0718 2.37416C40.0718 1.957 40.1757 1.56437 40.3836 1.19628C40.5914 0.828195 40.8726 0.539861 41.2272 0.331278C41.5817 0.110426 41.9669 0 42.3825 0C42.7982 0 43.1834 0.110426 43.5379 0.331278C43.8925 0.539861 44.1737 0.828195 44.3815 1.19628C44.5894 1.5521 44.6933 1.94473 44.6933 2.37416C44.6933 3.08579 44.4671 3.66246 44.0147 4.10417C43.5624 4.5336 43.0183 4.74832 42.3825 4.74832ZM37.4126 24.4226H38.8431C39.5033 24.4226 39.9496 24.2815 40.1818 23.9993C40.4141 23.7048 40.5303 23.2017 40.5303 22.4901V13.7296C40.5303 13.0671 40.4386 12.5886 40.2552 12.2941C40.0718 11.9996 39.7295 11.8524 39.2282 11.8524C39.057 11.8524 38.9226 11.8585 38.8247 11.8708L37.4126 12.1653L37.3026 10.7297L44.1431 9.36781V22.4901C44.1431 23.1281 44.247 23.6128 44.4549 23.944C44.6749 24.2631 45.0784 24.4226 45.6653 24.4226H46.894V25.8765H37.4126V24.4226Z" fill="#141414"/>
<path d="M47.5821 24.4226H48.9942C49.6177 24.4226 50.0334 24.2692 50.2412 23.9625C50.4491 23.6557 50.553 23.1649 50.553 22.4901V4.6747C50.553 4.06122 50.4613 3.59498 50.2779 3.27597C50.0945 2.95696 49.7522 2.79746 49.2509 2.79746C49.1042 2.79746 48.9942 2.80359 48.9208 2.81586L47.5821 3.12874L47.472 1.6748L54.1842 0.331278V22.4901C54.1842 23.7784 54.5937 24.4226 55.4129 24.4226H56.9901V25.8765H47.5821V24.4226Z" fill="#141414"/>
<path d="M66.4626 26.3918C64.9466 26.3918 63.5711 26.0299 62.3363 25.306C61.1137 24.5821 60.1478 23.576 59.4387 22.2877C58.7418 20.9994 58.3934 19.527 58.3934 17.8706C58.3934 16.202 58.7418 14.7296 59.4387 13.4536C60.1478 12.1775 61.1076 11.1898 62.318 10.4905C63.5283 9.79111 64.8671 9.44143 66.3342 9.44143C67.5813 9.44143 68.7856 9.74203 69.947 10.3432C71.1208 10.9322 72.0805 11.8463 72.8263 13.0855C73.5843 14.3124 73.9755 15.84 74 17.6682H62.2079C62.2079 18.8092 62.373 19.9196 62.7031 20.9994C63.0454 22.0668 63.6017 22.9625 64.3719 23.6864C65.1422 24.398 66.1386 24.7538 67.3612 24.7538C68.3638 24.7538 69.2807 24.4716 70.1121 23.9072C70.9435 23.3306 71.622 22.5392 72.1477 21.5331L73.3948 22.2693C72.7346 23.533 71.7932 24.5391 70.5706 25.2876C69.348 26.0237 67.9786 26.3918 66.4626 26.3918ZM70.5156 16.2694C70.4422 15.3738 70.2466 14.5272 69.9287 13.7296C69.6108 12.9198 69.1524 12.2573 68.5533 11.742C67.9542 11.2144 67.2206 10.9506 66.3526 10.9506C65.4845 10.9506 64.751 11.2144 64.1519 11.742C63.5528 12.2696 63.0943 12.9383 62.7764 13.748C62.4708 14.5456 62.2874 15.386 62.2263 16.2694H70.5156Z" fill="#141414"/>
<path d="M8.36266 48C7.28676 48 6.11306 47.7669 4.84154 47.3006C3.57002 46.8221 2.44522 45.951 1.46713 44.6872C0.50127 43.4235 0.0183392 41.6934 0.0183392 39.4972C0.0183392 37.5831 0.44014 35.9942 1.28374 34.7305C2.12734 33.4544 3.1849 32.5219 4.45642 31.933C5.72793 31.3441 7.0239 31.0496 8.34432 31.0496C9.59138 31.0496 10.8568 31.3318 12.1405 31.8962C13.4243 32.4606 14.5063 33.3747 15.3866 34.6384C16.2791 35.9022 16.7253 37.5218 16.7253 39.4972C16.7253 41.5094 16.2852 43.1535 15.4049 44.4296C14.5246 45.7056 13.4426 46.6197 12.1589 47.1718C10.8874 47.7239 9.62195 48 8.36266 48ZM8.39934 46.5092C9.21849 46.5092 9.97039 46.227 10.6551 45.6626C11.3519 45.0982 11.9021 44.2885 12.3056 43.2333C12.709 42.1658 12.9108 40.9266 12.9108 39.5156C12.9108 38.1782 12.7335 36.9819 12.3789 35.9268C12.0244 34.8716 11.5048 34.0495 10.8201 33.4606C10.1354 32.8594 9.3163 32.5588 8.36266 32.5588C7.40902 32.5588 6.58987 32.8594 5.90521 33.4606C5.23278 34.0618 4.71928 34.8838 4.36472 35.9268C4.01016 36.9574 3.83289 38.1107 3.83289 39.3868C3.83289 40.8346 4.03462 42.0983 4.43808 43.1781C4.84154 44.2578 5.3856 45.086 6.07026 45.6626C6.76715 46.227 7.54351 46.5092 8.39934 46.5092Z" fill="#141414"/>
<path d="M18.7338 46.0307H20.0542C20.7022 46.0307 21.1301 45.8774 21.338 45.5706C21.5581 45.2516 21.6681 44.7608 21.6681 44.0983V35.5219C21.6681 34.9329 21.5764 34.4789 21.393 34.1599C21.2218 33.8287 20.8978 33.663 20.421 33.663C20.2865 33.663 20.1826 33.6692 20.1093 33.6814L18.7338 33.9943L18.6238 32.5404L25.2992 31.1048V35.4114C26.0817 34.1477 27.0109 33.1047 28.0868 32.2827C29.1627 31.4606 30.2936 31.0496 31.4795 31.0496C33.1545 31.0496 34.4383 31.5342 35.3308 32.5035C36.2233 33.4728 36.6695 34.9391 36.6695 36.9022V44.0983C36.6695 45.3866 37.1953 46.0307 38.2467 46.0307H39.5488V47.4847H30.2508V46.0307H31.6996C32.2009 46.0307 32.5554 45.8651 32.7633 45.5338C32.9711 45.1903 33.0751 44.7056 33.0751 44.0799V36.9574C33.0751 35.7059 32.8489 34.7611 32.3965 34.1231C31.9564 33.4851 31.2228 33.1661 30.1958 33.1661C29.1933 33.1661 28.258 33.6507 27.3899 34.62C26.5219 35.5893 25.825 36.7181 25.2992 38.0064V44.0983C25.2992 44.6627 25.4032 45.1289 25.611 45.497C25.8189 45.8528 26.1428 46.0307 26.583 46.0307H28.0134V47.4847H18.7338V46.0307Z" fill="#141414"/>
<path d="M48.7646 48C47.2485 48 45.8731 47.638 44.6383 46.9141C43.4157 46.1902 42.4498 45.1841 41.7407 43.8958C41.0438 42.6075 40.6953 41.1352 40.6953 39.4788C40.6953 37.8101 41.0438 36.3378 41.7407 35.0617C42.4498 33.7857 43.4095 32.798 44.6199 32.0986C45.8303 31.3993 47.1691 31.0496 48.6362 31.0496C49.8833 31.0496 51.0875 31.3502 52.249 31.9514C53.4227 32.5403 54.3825 33.4544 55.1283 34.6937C55.8863 35.9206 56.2775 37.4482 56.302 39.2763H44.5099C44.5099 40.4174 44.6749 41.5278 45.0051 42.6075C45.3474 43.675 45.9037 44.5707 46.6739 45.2946C47.4442 46.0062 48.4406 46.362 49.6632 46.362C50.6657 46.362 51.5827 46.0798 52.4141 45.5154C53.2454 44.9387 53.924 44.1474 54.4497 43.1413L55.6968 43.8774C55.0366 45.1412 54.0952 46.1473 52.8725 46.8957C51.6499 47.6319 50.2806 48 48.7646 48ZM52.8175 37.8776C52.7442 36.9819 52.5486 36.1353 52.2307 35.3378C51.9128 34.528 51.4543 33.8655 50.8552 33.3501C50.2562 32.8226 49.5226 32.5588 48.6545 32.5588C47.7865 32.5588 47.0529 32.8226 46.4538 33.3501C45.8548 33.8777 45.3963 34.5464 45.0784 35.3562C44.7728 36.1537 44.5894 36.9942 44.5282 37.8776H52.8175Z" fill="#141414"/>
</svg>
