<svg width="66" height="66" viewBox="0 0 66 66" fill="none" xmlns="http://www.w3.org/2000/svg">
<path fill-rule="evenodd" clip-rule="evenodd" d="M32.4115 36.0001V65.2044H35.4405V36.0001H65.5635V33.0001L35.4405 33.0001V0.837891H32.4115V33.0001L0.563477 33.0001L0.563477 36.0001H32.4115Z" fill="#141414"/>
<path d="M15.36 15.5997L11.2256 9.1676H13.8853L16.8874 14.1329L19.8895 9.1676H22.5493L18.4148 15.5997L22.5668 22.0409H19.9071L16.8699 17.1485L13.8678 22.0409H11.208L15.36 15.5997Z" fill="#141414"/>
<path d="M49.3811 17.021L44.5273 9.1676H47.3389L50.5625 14.798L53.8136 9.1676H56.6434L51.808 17.021V22.0409H49.3811V17.021Z" fill="#141414"/>
<path d="M21.8101 45.5791L15.0254 54.1538H21.8101V56.1174H11.9658V54.6082L18.7764 45.9992H12.3548V44.0013H21.8101V45.5791Z" fill="#141414"/>
</svg>
