<svg xmlns="http://www.w3.org/2000/svg" width="90.78" height="90.15" viewBox="0 0 90.78 90.15">
  <metadata><?xpacket begin="﻿" id="W5M0MpCehiHzreSzNTczkc9d"?>
<x:xmpmeta xmlns:x="adobe:ns:meta/" x:xmptk="Adobe XMP Core 5.6-c142 79.160924, 2017/07/13-01:06:39        ">
   <rdf:RDF xmlns:rdf="http://www.w3.org/1999/02/22-rdf-syntax-ns#">
      <rdf:Description rdf:about=""/>
   </rdf:RDF>
</x:xmpmeta>
                                                                                                    
                                                                                                    
                                                                                                    
                                                                                                    
                                                                                                    
                                                                                                    
                                                                                                    
                                                                                                    
                                                                                                    
                                                                                                    
                                                                                                    
                                                                                                    
                                                                                                    
                                                                                                    
                                                                                                    
                                                                                                    
                                                                                                    
                                                                                                    
                                                                                                    
                                                                                                    
                           
<?xpacket end="w"?></metadata>
<defs>
    <style>
      .cls-1 {
        fill-rule: evenodd;
      }
    </style>
  </defs>
  <path id="Click_to_more_click_to_more_copy" data-name="Click to more * click to more * copy" class="cls-1" d="M3779.53,1068.48c2.29-.57,3.72-1.91,3.87-3.64l-2.68.08a1.759,1.759,0,0,1-1.58,1.69,1.829,1.829,0,0,1-2.48-1.33,1.855,1.855,0,0,1,1.57-2.35,1.739,1.739,0,0,1,2.17.77l2.45-1.13c-0.86-1.48-2.82-2.05-5.09-1.48-2.72.68-4.26,2.7-3.71,4.89C3774.61,1068.21,3776.75,1069.18,3779.53,1068.48Zm5.52-1.4,7.04-.12-0.04-1.96-4.48.08-0.09-5.14-2.56.05Zm10.64,0.51,1.03-7.02-2.54-.37-1.02,7.03Zm5.41,1.68c2.24,0.76,4.16.41,5.23-.96l-2.29-1.39a1.764,1.764,0,0,1-2.25.57,1.9,1.9,0,1,1,1.22-3.59,1.744,1.744,0,0,1,1.42,1.82l2.67,0.38c0.08-1.72-1.26-3.25-3.48-4-2.66-.9-5.05-0.03-5.77,2.1C3797.11,1066.37,3798.39,1068.35,3801.1,1069.27Zm10.32,5.04,2.44,1.61-0.27-5.35h0.22l3.88-.63-2.56-1.69-4.12.7,1.57-2.38-2.14-1.41-3.91,5.93,2.14,1.4,0.97-1.47,1.59-.29Zm14.71,4.82-5.15-6.14-1.5,1.25,1.76,2.09-3.95,3.31,1.64,1.96,3.95-3.31,1.76,2.1Zm-3.33,9.14c1.31,2.63,3.45,3.66,5.54,2.63s2.58-3.36,1.28-6-3.45-3.67-5.54-2.64S3821.5,1085.62,3822.8,1088.27Zm1.67-.83a1.952,1.952,0,1,1,2.68,1.04A1.929,1.929,0,0,1,3824.47,1087.44Zm2.09,9.83,0.14,2.21,3.9-.25a8.339,8.339,0,0,0,1.49-.2v0.04c-0.33.11-.86,0.31-1.4,0.54l-3.87,1.71,0.16,2.38,4.08,1.27a13.741,13.741,0,0,0,1.44.39l0.01,0.05a8.66,8.66,0,0,0-1.51-.04l-3.89.25,0.15,2.34,7.09-.46-0.26-3.89-3.66-.98a4.349,4.349,0,0,0-.93-0.2v-0.02a4.482,4.482,0,0,0,.87-0.32l3.52-1.5-0.24-3.79Zm-0.83,16.38c-0.67,2.86.33,5.01,2.6,5.55s4.12-.95,4.8-3.81-0.33-5.03-2.59-5.56S3826.41,1110.78,3825.73,1113.65Zm1.81,0.42a1.953,1.953,0,1,1,1.41,2.5A1.92,1.92,0,0,1,3827.54,1114.07Zm-5.72,10.15-1.32,2.5,3.12-.31a2.254,2.254,0,0,0,1.22,2.32c1.01,0.53,2.39.45,3.53-1.71l2.31-4.4-6.28-3.31-1.19,2.27,2.05,1.08-0.69,1.31Zm6.23-.1-0.84,1.61c-0.38.7-.82,0.77-1.2,0.56s-0.61-.6-0.23-1.33l0.84-1.59Zm-8.65,6.47,0.8,0.71-3.11,3.52,1.19,1.04,3.11-3.51,0.75,0.67-3.22,3.64,1.29,1.14,4.92-5.56-5.32-4.71-4.97,5.61,1.29,1.15Zm-9.3,12.06,1.24,1.05,0.63-1.47,0.32,1.44,1.53-.97-1.18-.9,1.61,0.06-0.41-1.57-1.33.79,0.64-1.52-1.71-.06,0.3,1.61-1.32-.97-0.69,1.57,1.65,0.08Zm-11.09-1.23c-2.27.65-3.66,2.03-3.75,3.77l2.67-.17a1.75,1.75,0,0,1,1.52-1.74,1.9,1.9,0,1,1,1.04,3.64,1.746,1.746,0,0,1-2.2-.69l-2.41,1.21c0.92,1.46,2.89,1.95,5.14,1.31,2.7-.77,4.16-2.85,3.55-5.01C3803.93,1141.53,3801.76,1140.63,3799.01,1141.42Zm-5.49,1.48-7.04.25,0.07,1.96,4.48-.16,0.18,5.14,2.56-.09Zm-10.67-.34-0.9,7.04,2.53,0.33,0.91-7.04Zm-5.44-1.59c-2.24-.73-4.16-0.35-5.21,1.03l2.32,1.36a1.738,1.738,0,0,1,2.23-.6,1.9,1.9,0,1,1-1.16,3.6,1.741,1.741,0,0,1-1.45-1.8l-2.67-.34c-0.06,1.72,1.31,3.23,3.53,3.95,2.67,0.86,5.05-.04,5.74-2.18C3781.45,1143.8,3780.14,1141.85,3777.41,1140.97Zm-10.38-4.86-2.46-1.57,0.35,5.35h-0.21l-3.87.69,2.58,1.65,4.12-.77-1.53,2.41,2.16,1.37,3.81-5.99-2.16-1.37-0.95,1.49-1.59.31Zm-14.8-4.61,5.25,6.07,1.47-1.28-1.78-2.07,3.89-3.37-1.67-1.93-3.89,3.38-1.8-2.08Zm3.19-9.16c-1.35-2.61-3.51-3.6-5.58-2.53s-2.52,3.4-1.17,6.01,3.51,3.61,5.58,2.55S3756.77,1124.97,3755.42,1122.34Zm-1.65.86a1.952,1.952,0,1,1-2.69-.99A1.921,1.921,0,0,1,3753.77,1123.2Zm-2.25-9.83-0.18-2.21-3.89.31a9.23,9.23,0,0,0-1.49.22v-0.04c0.33-.11.85-0.32,1.39-0.56l3.84-1.77-0.19-2.37-4.11-1.22c-0.49-.15-1.19-0.32-1.44-0.36l-0.01-.05a8.551,8.551,0,0,0,1.51.02l3.89-.32-0.19-2.33-7.08.57,0.31,3.88,3.68,0.93a4.953,4.953,0,0,0,.93.19v0.02a4.127,4.127,0,0,0-.86.33l-3.5,1.55,0.31,3.78Zm0.56-16.35c0.63-2.87-.41-5.01-2.68-5.51s-4.11,1.01-4.74,3.88c-0.63,2.89.4,5.03,2.68,5.52S3751.45,1099.9,3752.08,1097.02Zm-1.82-.4a1.951,1.951,0,1,1-1.44-2.47A1.916,1.916,0,0,1,3750.26,1096.62Zm5.58-10.27,1.27-2.52-3.11.35a2.225,2.225,0,0,0-1.25-2.29c-1.03-.52-2.4-0.42-3.51,1.76l-2.25,4.44,6.33,3.21,1.16-2.28-2.07-1.05,0.68-1.33Zm-6.24.19,0.82-1.61c0.36-.72.8-0.79,1.19-0.59s0.62,0.6.25,1.33l-0.81,1.6Zm8.55-6.59-0.81-.7,3.05-3.56-1.2-1.02-3.05,3.56-0.77-.66,3.17-3.69-1.31-1.12-4.83,5.63,5.39,4.62,4.88-5.68-1.31-1.12Zm9.1-12.2-1.26-1.03-0.61,1.47-0.34-1.43-1.51.99,1.18,0.89-1.6-.04,0.43,1.57,1.32-.81-0.61,1.53,1.7,0.03-0.32-1.61,1.34,0.95,0.66-1.58-1.65-.06Z" transform="translate(-3743.56 -1059.94)"/>
</svg>
