<svg xmlns="http://www.w3.org/2000/svg" width="44" height="44" viewBox="0 0 44 44">
  <metadata><?xpacket begin="﻿" id="W5M0MpCehiHzreSzNTczkc9d"?>
<x:xmpmeta xmlns:x="adobe:ns:meta/" x:xmptk="Adobe XMP Core 5.6-c142 79.160924, 2017/07/13-01:06:39        ">
   <rdf:RDF xmlns:rdf="http://www.w3.org/1999/02/22-rdf-syntax-ns#">
      <rdf:Description rdf:about=""/>
   </rdf:RDF>
</x:xmpmeta>
                                                                                                    
                                                                                                    
                                                                                                    
                                                                                                    
                                                                                                    
                                                                                                    
                                                                                                    
                                                                                                    
                                                                                                    
                                                                                                    
                                                                                                    
                                                                                                    
                                                                                                    
                                                                                                    
                                                                                                    
                                                                                                    
                                                                                                    
                                                                                                    
                                                                                                    
                                                                                                    
                           
<?xpacket end="w"?></metadata>
<defs>
    <style>
      .cls-1 {
        fill-rule: evenodd;
      }
    </style>
  </defs>
  <path class="cls-1" d="M3415.81,394.926v4.087a17.188,17.188,0,0,1-3.06-.766h-2.3c-3.84,0-5.72.483-8.16,1.788l-1.53.511a20.033,20.033,0,0,0-8.42,11.5c-0.08,2.043-.17,4.087-0.25,6.13a4.751,4.751,0,0,0,1.78-1.022h0.51c0.09-.17.17-0.34,0.26-0.51h0.51c0.08-.171.17-0.341,0.25-0.511l1.02-.256c0.09-.17.17-0.34,0.26-0.511h0.51c0.08-.17.17-0.34,0.25-0.511l1.02-.255v-0.256c0.26-.085.51-0.17,0.77-0.255,0.08-.17.17-0.34,0.25-0.511l1.02-.255c0.09-.171.17-0.341,0.26-0.511h0.51c0.08-.17.17-0.341,0.25-0.511h0.51c0.09-.17.17-0.341,0.26-0.511h0.51V411.53h0.51c0.08-.171.17-0.341,0.25-0.511h0.51c0.09-.17.17-0.341,0.26-0.511l1.02-.256V410c0.25-.085.51-0.17,0.76-0.255,0.09-.171.17-0.341,0.26-0.511l1.02-.256V408.72l0.76-.256c0.09-.17.17-0.34,0.26-0.511l1.02-.255c0.09-.17.17-0.341,0.25-0.511h0.51c0.09-.17.18-0.341,0.26-0.511h0.51c0.09-.17.17-0.34,0.26-0.511l1.02-.255v-0.256c0.25-.085.51-0.17,0.76-0.255,0.09-.17.17-0.341,0.26-0.511h0.51v-0.255h0.51c0.08-.171.17-0.341,0.25-0.511h0.51c0.09-.17.17-0.341,0.26-0.511h0.51v-0.255h0.51c0.08-.171.17-0.341,0.25-0.511h0.51c0.09-.171.17-0.341,0.26-0.511l1.02-.256v-0.255c0.25-.085.51-0.17,0.76-0.256,0.09-.17.17-0.34,0.26-0.511h0.51c0.08-.17.17-0.34,0.25-0.51l1.02-.256c0.09-.17.17-0.34,0.26-0.511h0.51c0.08-.17.17-0.34,0.25-0.511h0.51v-0.255c0.26-.085.51-0.17,0.77-0.255v0.255c1.69,0.785,5.64,5.233,5.86,7.408q-16.575,10.344-33.15,20.691v0.511a1.727,1.727,0,0,1,.76.766c0.52-.147.22,0.031,0.51-0.256,0.26-.085.51-0.17,0.77-0.255v-0.255h0.51v-0.256h0.51c0.08-.17.17-0.34,0.25-0.511h0.51c0.09-.17.17-0.34,0.26-0.511h0.51V426.09h0.51c0.08-.17.17-0.341,0.25-0.511h0.51c0.09-.17.17-0.341,0.26-0.511l1.02-.255c0.08-.171.17-0.341,0.25-0.511h0.51c0.09-.17.17-0.341,0.26-0.511,0.25-.085.51-0.17,0.76-0.256V423.28l1.02-.255v-0.256c0.26-.085.51-0.17,0.77-0.255,0.08-.171.17-0.341,0.25-0.511l1.02-.256v-0.255c0.26-.085.51-0.17,0.77-0.255,0.08-.171.17-0.341,0.25-0.511h0.51V420.47h0.51c0.09-.17.18-0.34,0.26-0.511h0.51c0.09-.17.17-0.34,0.26-0.511l1.02-.255c0.08-.17.17-0.341,0.25-0.511H3413c0.09-.17.17-0.341,0.26-0.511l1.02-.255c0.08-.171.17-0.341,0.25-0.511h0.51c0.09-.17.17-0.341,0.26-0.511,0.25-.085.51-0.17,0.76-0.255v-0.256l1.02-.255v-0.256c0.26-.085.51-0.17,0.77-0.255,0.08-.171.17-0.341,0.25-0.511h0.51V414.85h0.51c0.09-.17.17-0.34,0.26-0.511h0.51c0.08-.17.17-0.34,0.25-0.51l1.02-.256c0.09-.17.17-0.34,0.26-0.511h0.51c0.08-.17.17-0.34,0.25-0.511l1.02-.255c0.09-.17.17-0.341,0.26-0.511h0.51c0.08-.17.17-0.341,0.25-0.511h0.51c0.09-.17.17-0.34,0.26-0.511l1.02-.255c0.08-.17.17-0.341,0.25-0.511h0.51c0.09-.17.17-0.341,0.26-0.511l1.02-.255c0.08-.171.17-0.341,0.25-0.511l2.04-1.022a7.777,7.777,0,0,0,.77,2.3v0.766h0.25v1.278h0.26v1.532h0.25a14.175,14.175,0,0,1-.25,4.854c-0.09.936-.17,1.873-0.26,2.81h-0.25c-0.09.595-.17,1.192-0.26,1.788h-0.25c-0.09.425-.17,0.851-0.26,1.277h-0.25c-0.09.34-.17,0.681-0.26,1.022h-0.25l-0.51,1.532-0.51.256v0.511h-0.26v0.51c-0.25.171-.51,0.341-0.76,0.511v0.511c-0.26.17-.51,0.341-0.77,0.511v0.511l-1.02.766-1.53,1.788h-0.51l-0.51.767h-0.51l-0.51.766-1.02.256c-0.08.17-.17,0.34-0.25,0.51l-1.02.256v0.255l-1.53.511v0.256h-0.77v0.255h-0.51v0.255h-1.02v0.256h-0.76v0.255h-1.28c-1.02.309-4.77,0.969-6.38,0.511v-0.255h-1.78v-0.256l-1.79-.255v-4.087a17.188,17.188,0,0,1,3.06.766h2.3c3.84,0,5.72-.483,8.16-1.788l1.53-.511c0.09-.17.17-0.34,0.26-0.511h0.51c0.08-.17.17-0.34,0.25-0.511h0.51l0.51-.766h0.51c0.09-.17.17-0.341,0.26-0.511,0.59-.511,1.19-1.022,1.78-1.532v-0.511l1.02-.767v-0.511l0.51-.255c0.09-.341.17-0.681,0.26-1.022h0.25v-0.511h0.26l0.51-1.532h0.25v-0.767h0.26v-0.766h0.25v-1.022h0.26v-1.277h0.25v-4.6c-0.25.085-.51,0.17-0.76,0.255V414.6h-0.51v0.255h-0.51c-0.09.171-.17,0.341-0.26,0.511h-0.51c-0.08.171-.17,0.341-0.25,0.511h-0.51v0.256h-0.51c-0.09.17-.17,0.34-0.26,0.511h-0.51c-0.08.17-.17,0.34-0.25,0.51l-1.02.256c-0.09.17-.17,0.34-0.26,0.511h-0.51c-0.08.17-.17,0.34-0.25,0.511h-0.51c-0.09.17-.17,0.34-0.26,0.51l-1.02.256v0.255c-0.25.086-.51,0.171-0.76,0.256-0.09.17-.17,0.34-0.26,0.511h-0.51v0.255h-0.51c-0.08.17-.17,0.341-0.25,0.511h-0.51c-0.09.17-.17,0.341-0.26,0.511l-1.02.255c-0.08.171-.17,0.341-0.25,0.511h-0.51c-0.09.171-.17,0.341-0.26,0.511l-1.02.256c-0.08.17-.17,0.34-0.25,0.51h-0.51c-0.09.171-.17,0.341-0.26,0.511-0.25.086-.51,0.171-0.76,0.256v0.255c-0.35.085-.68,0.171-1.03,0.256v0.255c-0.25.085-.51,0.17-0.76,0.256-0.09.17-.17,0.34-0.26,0.51l-1.02.256c-0.08.17-.17,0.34-0.25,0.511h-0.51c-0.09.17-.17,0.34-0.26,0.511l-1.02.255v0.256c-0.25.085-.51,0.17-0.76,0.255-0.09.17-.17,0.341-0.26,0.511l-1.02.255c-0.08.171-.17,0.341-0.25,0.511h-0.51c-0.09.17-.17,0.341-0.26,0.511l-1.02.256c-0.08.17-.17,0.34-0.25,0.51h-0.51c-0.09.171-.17,0.341-0.26,0.511h-0.51c-0.08.171-.17,0.341-0.25,0.511l-1.02.256c-0.09.17-.17,0.34-0.26,0.51h-0.51c-0.08.171-.17,0.341-0.25,0.511l-1.02.256c-0.09.17-.17,0.34-0.26,0.511-0.35.046,0.08-.113-0.25-0.256-1.85-1-5.64-5.148-6.12-7.408a4.754,4.754,0,0,0,1.78-.766c0.09-.17.17-0.341,0.26-0.511h0.51c0.08-.17.17-0.34,0.25-0.511l1.02-.255c0.09-.17.17-0.341,0.26-0.511h0.51c0.08-.17.17-0.341,0.25-0.511l1.02-.255c0.09-.171.17-0.341,0.26-0.511h0.51c0.08-.171.17-0.341,0.25-0.511l1.02-.255v-0.256c0.26-.085.51-0.17,0.77-0.255,0.08-.171.17-0.341,0.25-0.511h0.51v-0.256h0.51c0.09-.17.17-0.34,0.26-0.511h0.51c0.08-.17.17-0.34,0.25-0.511l1.02-.255c0.09-.17.17-0.341,0.26-0.511h0.51c0.08-.17.17-0.34,0.25-0.511h0.51c0.09-.17.17-0.34,0.26-0.511h0.51v-0.255h0.51c0.08-.17.17-0.341,0.25-0.511h0.51c0.09-.17.17-0.341,0.26-0.511l1.02-.255v-0.256c0.25-.085.51-0.17,0.76-0.255,0.09-.17.17-0.341,0.26-0.511h0.51v-0.256h0.51c0.09-.17.17-0.34,0.25-0.51h0.51c0.09-.171.18-0.341,0.26-0.511l1.02-.256c0.09-.17.17-0.34,0.26-0.511h0.51c0.08-.17.17-0.34,0.25-0.51,0.26-.086.51-0.171,0.77-0.256V411.53l1.02-.256v-0.255c0.25-.085.51-0.17,0.76-0.256,0.09-.17.17-0.34,0.26-0.511l1.02-.255v-0.255c0.25-.086.51-0.171,0.76-0.256,0.09-.17.17-0.34,0.26-0.511h0.51V408.72h0.51c0.08-.171.17-0.341,0.25-0.511h0.51c0.09-.17.17-0.341,0.26-0.511l1.02-.255c0.08-.171.17-0.341,0.25-0.511h0.51c0.09-.171.17-0.341,0.26-0.511h0.51c0.08-.17.17-0.341,0.25-0.511h0.51v-0.256h0.51c0.09-.17.17-0.34,0.26-0.51h0.51v-0.256h-0.26c-0.19-.822-0.34-0.93-1.27-1.022-0.5.728-1.3,0.786-2.04,1.278-0.09.17-.17,0.34-0.26,0.51h-0.51v0.256h-0.51c-0.08.17-.17,0.341-0.25,0.511h-0.51c-0.09.17-.17,0.34-0.26,0.511l-1.02.255c-0.08.17-.17,0.341-0.25,0.511h-0.51c-0.09.17-.17,0.341-0.26,0.511h-0.51c-0.08.17-.17,0.34-0.25,0.511l-1.02.255v0.256c-0.26.085-.51,0.17-0.77,0.255-0.08.17-.17,0.341-0.25,0.511h-0.51v0.255h-0.51c-0.09.171-.17,0.341-0.26,0.511h-0.51c-0.08.171-.17,0.341-0.25,0.511-0.35.085-.68,0.17-1.03,0.256v0.255c-0.25.085-.51,0.17-0.76,0.256-0.09.17-.17,0.34-0.26,0.51l-1.02.256c-0.08.17-.17,0.34-0.25,0.511h-0.51c-0.09.17-.17,0.34-0.26,0.511-0.25.085-.51,0.17-0.76,0.255v0.255l-1.02.256v0.255c-0.26.086-.51,0.171-0.77,0.256-0.08.17-.17,0.34-0.25,0.511l-1.02.255v0.256c-0.26.085-.51,0.17-0.77,0.255-0.08.17-.17,0.341-0.25,0.511l-1.02.255c-0.09.171-.17,0.341-0.26,0.511h-0.51c-0.08.171-.17,0.341-0.25,0.511l-1.02.256v0.255c-0.26.085-.51,0.17-0.77,0.255-0.08.171-.17,0.341-0.25,0.511l-1.02.256c-0.09.17-.17,0.34-0.26,0.511h-0.51c-0.08.17-.17,0.34-0.25,0.511h-0.51c-0.09.17-.17,0.34-0.26,0.511l-1.02.255v0.255l-0.76.256c-0.09.17-.17,0.34-0.26,0.511l-1.02.255c-0.08.17-.17,0.341-0.25,0.511h-0.51c-0.09.17-.17,0.341-0.26,0.511l-1.02.255c-0.08.171-.17,0.341-0.25,0.511-0.36.046,0.07-.112-0.26-0.255h-0.25c-0.09-.511-0.17-1.022-0.26-1.533h-0.25V422a18.859,18.859,0,0,1,.51-13.539V407.7h0.25l0.51-1.533h0.26c0.08-.34.17-0.681,0.25-1.021l0.51-.256c0.09-.34.17-0.681,0.26-1.022,0.25-.17.51-0.34,0.76-0.51v-0.511l1.02-.767v-0.511c0.6-.51,1.19-1.021,1.79-1.532,0.08-.171.17-0.341,0.25-0.511h0.51c0.26-.341.51-0.681,0.77-1.022h0.51l0.51-.766,1.02-.256c0.08-.17.17-0.34,0.25-0.511l1.02-.255v-0.256l1.53-.51v-0.256c0.77-.17,1.53-0.34,2.3-0.511v-0.255h0.76V394.67h1.28c1.02-.307,4.77-0.969,6.38-0.51v0.255h1.78v0.255Z" transform="translate(-3388 -394)"/>
</svg>
