<svg xmlns="http://www.w3.org/2000/svg" width="90.56" height="90.591" viewBox="0 0 90.56 90.591">
  <metadata><?xpacket begin="﻿" id="W5M0MpCehiHzreSzNTczkc9d"?>
<x:xmpmeta xmlns:x="adobe:ns:meta/" x:xmptk="Adobe XMP Core 5.6-c142 79.160924, 2017/07/13-01:06:39        ">
   <rdf:RDF xmlns:rdf="http://www.w3.org/1999/02/22-rdf-syntax-ns#">
      <rdf:Description rdf:about=""/>
   </rdf:RDF>
</x:xmpmeta>
                                                                                                    
                                                                                                    
                                                                                                    
                                                                                                    
                                                                                                    
                                                                                                    
                                                                                                    
                                                                                                    
                                                                                                    
                                                                                                    
                                                                                                    
                                                                                                    
                                                                                                    
                                                                                                    
                                                                                                    
                                                                                                    
                                                                                                    
                                                                                                    
                                                                                                    
                                                                                                    
                           
<?xpacket end="w"?></metadata>
<defs>
    <style>
      .cls-1 {
        fill-rule: evenodd;
      }
    </style>
  </defs>
  <path id="_Next_next_next_next_copy" data-name="* Next * next * next * next copy" class="cls-1" d="M3682.98,921.067l-0.91-1.349-1.01,1.234,0.09-1.465-1.74.509,0.88,1.19-1.52-.5-0.04,1.627,1.49-.4-1.02,1.291,1.62,0.525,0.15-1.639,1.01,1.3,1.09-1.319-1.56-.533Zm9.16,3.72,2.31,0.209,0.28-3.106,0.1-1.086,0.05,0a4.543,4.543,0,0,0,.52.951l2.73,3.57,2.49,0.226,0.64-7.07-2.3-.208-0.28,3.077-0.1,1.1-0.05,0a5,5,0,0,0-.51-0.93l-2.6-3.558-2.64-.239Zm14.51,0.932,0.39-.994,4.36,1.738,0.58-1.468-4.35-1.737,0.37-.938,4.52,1.8,0.63-1.6-6.89-2.748-2.63,6.593,6.96,2.774,0.64-1.6Zm5.92,4.377,2.39,1.876,2.13-.477a5.068,5.068,0,0,0,.79-0.18l0.01,0.012a3.64,3.64,0,0,0,.01.8l0.05,2.186,2.39,1.876-0.36-4.862,4.67-.769-2.36-1.857-2.23.489a4,4,0,0,0-.6.15l-0.03-.025a2.479,2.479,0,0,0,0-.619l-0.04-2.273-2.37-1.857,0.35,4.712Zm19.4,9.911-4.67-6.514-1.58,1.136,1.59,2.217-4.18,3,1.48,2.072,4.18-3,1.6,2.225Zm2.84,12.517,1.34-.922-1.24-1,1.46,0.074-0.53-1.731-1.18.895,0.49-1.529-1.63-.025,0.41,1.494-1.3-1.013-0.51,1.63,1.64,0.135-1.28,1.022,1.33,1.077,0.51-1.569Zm-3.61,9.2-0.18,2.313,3.11,0.241,1.09,0.084v0.05a4.844,4.844,0,0,0-.95.539l-3.53,2.775-0.2,2.492,7.08,0.549,0.18-2.3-3.08-.239-1.1-.085,0.01-.05a5.094,5.094,0,0,0,.92-0.53l3.52-2.645,0.21-2.642Zm-0.75,14.528,1,0.383-1.68,4.376,1.47,0.566,1.68-4.377,0.94,0.362-1.74,4.536,1.61,0.616,2.66-6.925-6.63-2.542-2.68,6.989,1.6,0.616Zm-4.31,5.973-1.85,2.416,0.51,2.122a4.27,4.27,0,0,0,.19.787l-0.01.016a3.9,3.9,0,0,0-.81.015l-2.18.079-1.85,2.415,4.86-.415,0.83,4.661,1.83-2.391-0.52-2.221a3.408,3.408,0,0,0-.16-0.6l0.02-.032a2.644,2.644,0,0,0,.62,0l2.28-.076,1.82-2.392-4.71.416Zm-9.66,19.527,6.45-4.762-1.16-1.569-2.19,1.62-3.06-4.144-2.05,1.512,3.05,4.144-2.2,1.629Zm-12.47,2.98,0.94,1.33,0.98-1.26-0.06,1.47,1.73-.55-0.91-1.17,1.54,0.46v-1.63l-1.49.44,1-1.32-1.64-.49-0.11,1.65-1.04-1.28-1.06,1.35,1.57,0.49Zm-9.26-3.5-2.32-.15-0.21,3.12-0.07,1.09-0.05-.01a4.711,4.711,0,0,0-.55-0.94l-2.82-3.5-2.49-.17-0.47,7.09,2.31,0.16,0.2-3.09,0.07-1.1h0.05a5.507,5.507,0,0,0,.54.92l2.69,3.5,2.65,0.17Zm-14.52-.57-0.37,1.01-4.4-1.63-0.55,1.48,4.4,1.63-0.35.95-4.56-1.69-0.6,1.61,6.96,2.58,2.47-6.66-7.03-2.6-0.6,1.614Zm-6.03-4.227-2.43-1.816-2.12.53a4.686,4.686,0,0,0-.78.2l-0.02-.011a4.6,4.6,0,0,0-.02-0.8l-0.11-2.184-2.44-1.816,0.48,4.852-4.65.886,2.41,1.8,2.21-.544a3.771,3.771,0,0,0,.6-0.166l0.03,0.024a2.614,2.614,0,0,0,.01.62l0.11,2.269,2.41,1.8-0.47-4.7Zm-19.63-9.418,4.83,6.4,1.56-1.174-1.65-2.177,4.11-3.1-1.54-2.034-4.1,3.1-1.66-2.185Zm-3.16-12.451-1.32.954,1.28,0.968-1.47-.038,0.57,1.716,1.16-.922-0.45,1.539,1.63-.015-0.45-1.483,1.33,0.981,0.46-1.641-1.64-.1,1.26-1.053-1.36-1.043-0.48,1.58Zm3.38-9.3,0.13-2.316-3.12-.166-1.09-.058v-0.05a4.817,4.817,0,0,0,.94-0.561l3.46-2.859,0.13-2.5-7.08-.377-0.13,2.306,3.09,0.164,1.1,0.058-0.01.05a5.756,5.756,0,0,0-.91.553l-3.46,2.729-0.14,2.646Zm0.39-14.53-1-.359,1.57-4.415-1.49-.53-1.57,4.415-0.95-.338,1.63-4.575-1.62-.577-2.49,6.985,6.69,2.381,2.51-7.051-1.62-.577Zm4.17-6.08,1.78-2.457-0.55-2.108a6.131,6.131,0,0,0-.21-0.783l0.01-.016a3.746,3.746,0,0,0,.8-0.034l2.18-.131,1.79-2.457-4.85.531-0.94-4.637L3657.6,935l0.57,2.206a3.214,3.214,0,0,0,.17.595l-0.02.032a2.626,2.626,0,0,0-.62.019l-2.27.13-1.77,2.433,4.69-.528Zm9.16-19.746-6.33,4.915,1.19,1.541,2.16-1.674,3.15,4.068,2.02-1.563-3.16-4.068,2.17-1.679Z" transform="translate(-3647.72 -917.719)"/>
</svg>
