<svg xmlns="http://www.w3.org/2000/svg" width="90.5" height="90.5" viewBox="0 0 90.5 90.5">
  <metadata><?xpacket begin="﻿" id="W5M0MpCehiHzreSzNTczkc9d"?>
<x:xmpmeta xmlns:x="adobe:ns:meta/" x:xmptk="Adobe XMP Core 5.6-c142 79.160924, 2017/07/13-01:06:39        ">
   <rdf:RDF xmlns:rdf="http://www.w3.org/1999/02/22-rdf-syntax-ns#">
      <rdf:Description rdf:about=""/>
   </rdf:RDF>
</x:xmpmeta>
                                                                                                    
                                                                                                    
                                                                                                    
                                                                                                    
                                                                                                    
                                                                                                    
                                                                                                    
                                                                                                    
                                                                                                    
                                                                                                    
                                                                                                    
                                                                                                    
                                                                                                    
                                                                                                    
                                                                                                    
                                                                                                    
                                                                                                    
                                                                                                    
                                                                                                    
                                                                                                    
                           
<?xpacket end="w"?></metadata>
<defs>
    <style>
      .cls-1 {
        fill-rule: evenodd;
      }
    </style>
  </defs>
  <path id="_Prev_prev_prev_prev_copy" data-name="* Prev * prev * prev * prev copy" class="cls-1" d="M3445.42,945.953l-0.9-1.355-1.02,1.228,0.1-1.464-1.74.5,0.88,1.195-1.52-.512-0.06,1.627,1.5-.387-1.03,1.284,1.62,0.535,0.16-1.638,1,1.3,1.1-1.312-1.56-.542Zm14.75-2.759-4.97-.433-0.61,7.075,2.55,0.222,0.18-2.063,2.46,0.215c1.88,0.164,3.18-.737,3.31-2.321C3463.23,944.364,3462.14,943.366,3460.17,943.194Zm-0.96,3.33-1.75-.153,0.15-1.763,1.77,0.154a0.9,0.9,0,0,1,1.02.972A0.92,0.92,0,0,1,3459.21,946.524Zm10.99,6.65,2.63,1.019-0.66-3.065a2.223,2.223,0,0,0,2.16-1.47c0.41-1.072.18-2.429-2.11-3.315l-4.63-1.8-2.57,6.621,2.39,0.925,0.84-2.163,1.39,0.538Zm-0.81-6.182,1.69,0.655c0.74,0.289.85,0.718,0.7,1.119a0.857,0.857,0,0,1-1.3.388l-1.68-.651Zm8.66,8.69,0.64-.854,3.75,2.82,0.95-1.26-3.75-2.82,0.61-.806,3.88,2.922,1.03-1.372-5.92-4.462-4.27,5.664,5.98,4.5,1.03-1.372Zm6.5,8.419,1.85,2.486,7.73-1.513-1.7-2.278-4.61,1.118a3.509,3.509,0,0,0-.75.27l-0.03-.032a4.06,4.06,0,0,0,.48-0.639l2.39-4.1-1.7-2.278Zm12.33,13.689,1.34-.913-1.24-1.007,1.47,0.084-0.52-1.734-1.19.887,0.5-1.525-1.63-.035,0.41,1.5-1.3-1.021-0.52,1.626,1.64,0.146-1.29,1.013,1.33,1.085,0.52-1.565Zm3.01,14.639,0.35-4.97-7.09-.49-0.17,2.554,2.06,0.143-0.17,2.465c-0.13,1.886.79,3.164,2.38,3.274C3498.78,995.51,3499.76,994.405,3499.89,992.429Zm-3.34-.894,0.12-1.756,1.76,0.122-0.12,1.767a0.894,0.894,0,0,1-.95,1.037A0.915,0.915,0,0,1,3496.55,991.535Zm-6.46,11.115-0.97,2.65,3.06-.72a2.2,2.2,0,0,0,1.51,2.13c1.07,0.4,2.43.14,3.27-2.16l1.71-4.67-6.67-2.443-0.88,2.4,2.18,0.8-0.51,1.4Zm6.17-.93-0.62,1.7c-0.28.75-.71,0.87-1.11,0.73a0.858,0.858,0,0,1-.41-1.29l0.62-1.69Zm-8.55,8.82,0.87,0.63-2.76,3.79,1.28,0.93,2.76-3.79,0.81,0.59-2.85,3.93,1.39,1.01,4.36-6-5.74-4.17-4.4,6.06,1.39,1.01Zm-8.3,6.64-2.45,1.9,1.65,7.7,2.25-1.74-1.2-4.6a3.567,3.567,0,0,0-.29-0.74l0.04-.02a4.227,4.227,0,0,0,.64.46l4.15,2.32,2.25-1.74Zm-13.47,12.57,0.94,1.33,0.98-1.26-0.05,1.47,1.72-.55-0.91-1.17,1.54,0.46,0.01-1.62-1.49.43,1-1.32-1.64-.49-0.12,1.65-1.03-1.28-1.07,1.35,1.58,0.49Zm-14.57,3.26,4.97,0.26,0.37-7.09-2.56-.13-0.11,2.06-2.46-.12c-1.89-.1-3.15.84-3.23,2.43C3448.27,1031.95,3449.39,1032.91,3451.37,1033.01Zm0.83-3.36,1.76,0.09-0.09,1.77-1.77-.1a0.887,0.887,0,0,1-1.05-.93A0.909,0.909,0,0,1,3452.2,1029.65Zm-11.23-6.26-2.67-.92,0.77,3.03a2.231,2.231,0,0,0-2.11,1.55c-0.37,1.08-.09,2.43,2.22,3.24l4.69,1.63,2.34-6.71-2.42-.84-0.76,2.19-1.41-.49Zm1.02,6.15-1.71-.6c-0.75-.26-0.88-0.68-0.74-1.09,0.15-.43.51-0.7,1.28-0.43l1.7,0.59Zm-8.97-8.39-0.61.88-3.84-2.69-0.91,1.29,3.84,2.69-0.57.83-3.98-2.79-0.99,1.41,6.07,4.25,4.08-5.81-6.14-4.3-0.98,1.41Zm-6.76-8.18-1.94-2.42-7.67,1.78,1.78,2.22,4.57-1.28a3.567,3.567,0,0,0,.74-0.29l0.02,0.03a4.333,4.333,0,0,0-.45.65l-2.25,4.18,1.78,2.22Zm-12.8-13.246-1.32.956,1.28,0.97-1.47-.04,0.58,1.72,1.15-.93-0.44,1.54,1.63-.02-0.46-1.48,1.33,0.98,0.46-1.65-1.64-.09,1.26-1.05-1.36-1.042-0.47,1.582Zm-3.53-14.553-0.17,4.98,7.1,0.251,0.09-2.56-2.07-.073,0.09-2.47c0.06-1.89-.9-3.135-2.5-3.192C3410.95,982.053,3410,983.191,3409.93,985.171Zm3.38,0.781-0.06,1.759-1.77-.062,0.06-1.77a0.9,0.9,0,0,1,.92-1.069A0.914,0.914,0,0,1,3413.31,985.952Zm6.07-11.318,0.88-2.678-3.03.814a2.225,2.225,0,0,0-1.58-2.078c-1.09-.359-2.43-0.054-3.2,2.272l-1.55,4.719,6.74,2.22,0.8-2.43-2.2-.726,0.46-1.415Zm-6.13,1.128,0.56-1.718c0.25-.76.68-0.894,1.09-0.76a0.856,0.856,0,0,1,.45,1.276l-0.56,1.709Zm8.23-9.108-0.89-.6,2.63-3.882-1.31-.885-2.62,3.882-0.84-.566,2.72-4.023-1.42-.963-4.16,6.142,5.88,3.977,4.2-6.2-1.43-.964Zm8.07-6.925,2.39-1.977-1.9-7.639-2.19,1.811,1.35,4.554a3.92,3.92,0,0,0,.31.732l-0.03.025a3.533,3.533,0,0,0-.67-0.439l-4.22-2.181-2.18,1.811Z" transform="translate(-3409.75 -942.75)"/>
</svg>
