<svg xmlns="http://www.w3.org/2000/svg" width="90.68" height="90.72" viewBox="0 0 90.68 90.72">
  <metadata><?xpacket begin="﻿" id="W5M0MpCehiHzreSzNTczkc9d"?>
<x:xmpmeta xmlns:x="adobe:ns:meta/" x:xmptk="Adobe XMP Core 5.6-c142 79.160924, 2017/07/13-01:06:39        ">
   <rdf:RDF xmlns:rdf="http://www.w3.org/1999/02/22-rdf-syntax-ns#">
      <rdf:Description rdf:about=""/>
   </rdf:RDF>
</x:xmpmeta>
                                                                                                    
                                                                                                    
                                                                                                    
                                                                                                    
                                                                                                    
                                                                                                    
                                                                                                    
                                                                                                    
                                                                                                    
                                                                                                    
                                                                                                    
                                                                                                    
                                                                                                    
                                                                                                    
                                                                                                    
                                                                                                    
                                                                                                    
                                                                                                    
                                                                                                    
                                                                                                    
                           
<?xpacket end="w"?></metadata>
<defs>
    <style>
      .cls-1 {
        fill-rule: evenodd;
      }
    </style>
  </defs>
  <path id="sCROLL_DOWN_SCROLL_DOWN_D" data-name="sCROLL DOWN * SCROLL DOWN * D" class="cls-1" d="M3496.46,1069.5c2.59-.65,3.91-1.94,3.51-3.54-0.33-1.32-1.27-1.69-3.3-1.4l-1.82.27c-0.71.1-.94,0.04-1.01-0.23-0.08-.32.32-0.6,1.14-0.8a4.5,4.5,0,0,1,2.98.16l1-1.8a7.235,7.235,0,0,0-4.26-.05c-2.44.61-3.63,1.8-3.28,3.21,0.34,1.33,1.35,1.76,3.15,1.54l2.12-.27c0.6-.08.79-0.03,0.86,0.23,0.09,0.37-.34.69-1.37,0.94a4.63,4.63,0,0,1-3.22-.39l-1.25,1.8A6.91,6.91,0,0,0,3496.46,1069.5Zm9.64-1.23c2.36,0,4.07-.95,4.65-2.59l-2.62-.58a1.753,1.753,0,0,1-1.95,1.25,1.836,1.836,0,0,1-2.09-1.89,1.865,1.865,0,0,1,2.1-1.9,1.756,1.756,0,0,1,1.93,1.28l2.65-.5c-0.48-1.65-2.24-2.67-4.58-2.68-2.81,0-4.79,1.58-4.8,3.83C3501.39,1066.8,3503.23,1068.26,3506.1,1068.27Zm11.4,1.51,2.72,0.74-0.97-2.98a2.211,2.211,0,0,0,1.99-1.68c0.3-1.11-.07-2.44-2.43-3.08l-4.8-1.31-1.86,6.85,2.47,0.67,0.61-2.23,1.43,0.39Zm-1.45-6.06,1.75,0.47c0.77,0.21.93,0.63,0.81,1.04-0.11.44-.45,0.74-1.25,0.52l-1.73-.47Zm8.94,9.7c2.54,1.48,4.89,1.15,6.07-.86s0.3-4.22-2.24-5.7-4.9-1.16-6.08.85S3522.45,1071.93,3524.99,1073.42Zm0.94-1.61a1.951,1.951,0,1,1,2.8-.61A1.906,1.906,0,0,1,3525.93,1071.81Zm4.34,4.82,5.04,4.92,1.37-1.4-3.21-3.13,3.6-3.68-1.83-1.79Zm5.9,6.09,3.81,5.91,1.65-1.06-2.42-3.76,4.32-2.79-1.39-2.15Zm5.68,10.1,1.14,4.57c0.62,2.51,2.49,3.83,4.6,3.31s2.94-2.38,2.3-4.96l-1.15-4.63Zm2.23,2.09,3.68-.92,0.43,1.74a1.776,1.776,0,0,1-1.3,2.36,1.848,1.848,0,0,1-2.39-1.51Zm-0.38,12.63c-0.12,2.94,1.28,4.87,3.61,4.96s3.87-1.71,3.99-4.65-1.28-4.88-3.61-4.97S3543.82,1104.59,3543.7,1107.54Zm1.86,0.08a1.953,1.953,0,1,1,1.86,2.18A1.9,1.9,0,0,1,3545.56,1107.62Zm-2.4,7.44-1,2.69,3.27,2.68a3.061,3.061,0,0,0,.58.38l-0.02.04a2.767,2.767,0,0,0-.68-0.09l-4.23-.1-0.99,2.69,5.82,4.74,0.89-2.41-3.35-2.46a3.008,3.008,0,0,0-.66-0.39l0.01-.05a2.983,2.983,0,0,0,.79.07l4.22,0.09,0.94-2.54-3.26-2.68a3.97,3.97,0,0,0-.64-0.46l0.01-.04a3.752,3.752,0,0,0,.77.13l4.14,0.31,0.89-2.41Zm-4.98,11.58-1.46,1.8,2.42,1.97,0.85,0.68-0.03.04a4.915,4.915,0,0,0-1.09-.09l-4.48.28-1.57,1.94,5.51,4.47,1.46-1.8-2.4-1.94-0.86-.69,0.03-.04a4.52,4.52,0,0,0,1.06.08l4.41-.17,1.66-2.06Zm-10.74,16.81,1.26,1.04,0.62-1.47,0.32,1.43,1.53-.98-1.19-.89,1.61,0.05-0.42-1.58-1.33.81,0.62-1.53-1.7-.04,0.32,1.61-1.34-.96-0.67,1.58,1.65,0.06Zm-11.27-1.07c-2.57.73-3.85,2.06-3.4,3.65,0.37,1.31,1.33,1.65,3.35,1.29l1.81-.33c0.71-.12.94-0.07,1.01,0.2,0.1,0.31-.29.6-1.11,0.83a4.453,4.453,0,0,1-2.98-.06l-0.94,1.83a7.3,7.3,0,0,0,4.26-.08c2.42-.7,3.56-1.93,3.17-3.32-0.38-1.33-1.41-1.72-3.2-1.44l-2.11.35c-0.59.09-.79,0.05-0.87-0.21-0.1-.37.32-0.7,1.34-0.99a4.691,4.691,0,0,1,3.23.28l1.19-1.84A6.938,6.938,0,0,0,3516.17,1142.38Zm-9.62,1.4c-2.36.04-4.05,1.02-4.6,2.67l2.63,0.54a1.749,1.749,0,0,1,1.92-1.29,1.827,1.827,0,0,1,2.12,1.85,1.853,1.853,0,0,1-2.05,1.94,1.769,1.769,0,0,1-1.96-1.24l-2.64.54c0.51,1.65,2.29,2.64,4.63,2.6,2.81-.05,4.76-1.67,4.72-3.92C3511.29,1145.17,3509.42,1143.74,3506.55,1143.78Zm-11.42-1.29-2.74-.69,1.03,2.97a2.2,2.2,0,0,0-1.96,1.72c-0.28,1.12.12,2.44,2.5,3.03l4.82,1.21,1.73-6.89-2.48-.62-0.57,2.25-1.44-.36Zm1.56,6.04-1.75-.44c-0.78-.2-0.94-0.61-0.84-1.03a0.858,0.858,0,0,1,1.24-.54l1.75,0.44Zm-9.15-9.56c-2.57-1.43-4.92-1.06-6.06.97s-0.22,4.23,2.35,5.67,4.93,1.07,6.06-.97S3490.11,1140.41,3487.54,1138.97Zm-0.91,1.63a1.95,1.95,0,1,1-2.79.66A1.916,1.916,0,0,1,3486.63,1140.6Zm-4.4-4.72-5.12-4.84-1.34,1.43,3.26,3.08-3.53,3.74,1.86,1.75Zm-6.02-5.99-3.92-5.84-1.63,1.09,2.5,3.72-4.27,2.86,1.43,2.13Zm-5.93-9.98-1.14-4.57c-0.63-2.51-2.5-3.82-4.6-3.3-2.13.54-2.94,2.39-2.3,4.97l1.16,4.62Zm-2.23-2.08-3.67.92-0.44-1.74a1.776,1.776,0,0,1,1.3-2.36,1.848,1.848,0,0,1,2.39,1.5Zm0.17-12.62c0.07-2.93-1.36-4.83-3.69-4.88s-3.84,1.78-3.9,4.72,1.36,4.85,3.69,4.9S3468.16,1108.16,3468.22,1105.21Zm-1.86-.04a1.947,1.947,0,1,1-1.89-2.15A1.907,1.907,0,0,1,3466.36,1105.17Zm2.27-7.47,0.94-2.71-3.32-2.63a3.586,3.586,0,0,0-.58-0.36l0.01-.05a2.364,2.364,0,0,0,.69.08l4.23,0.03,0.94-2.71-5.91-4.63-0.84,2.43,3.39,2.39a3.015,3.015,0,0,0,.67.38l-0.01.05a3,3,0,0,0-.79-0.05l-4.23-.02-0.89,2.55,3.32,2.62a2.609,2.609,0,0,0,.65.45l-0.02.05a3.175,3.175,0,0,0-.76-0.12l-4.15-.24-0.85,2.43Zm4.76-11.68,1.42-1.83-2.46-1.92-0.86-.67,0.03-.04a4.96,4.96,0,0,0,1.09.08l4.48-.37,1.54-1.97-5.6-4.36-1.42,1.82,2.43,1.9,0.87,0.67-0.03.04a5.176,5.176,0,0,0-1.06-.06l-4.4.26-1.63,2.09Zm10.4-17-1.27-1.01-0.6,1.48-0.35-1.42-1.5,1,1.2,0.87-1.61-.02,0.45,1.57,1.31-.83-0.59,1.54,1.71,0.01-0.35-1.61,1.35,0.94,0.64-1.59-1.65-.04Z" transform="translate(-3460.63 -1060.66)"/>
</svg>
