<svg xmlns="http://www.w3.org/2000/svg" width="90.47" height="90.437" viewBox="0 0 90.47 90.437">
  <metadata><?xpacket begin="﻿" id="W5M0MpCehiHzreSzNTczkc9d"?>
<x:xmpmeta xmlns:x="adobe:ns:meta/" x:xmptk="Adobe XMP Core 5.6-c142 79.160924, 2017/07/13-01:06:39        ">
   <rdf:RDF xmlns:rdf="http://www.w3.org/1999/02/22-rdf-syntax-ns#">
      <rdf:Description rdf:about=""/>
   </rdf:RDF>
</x:xmpmeta>
                                                                                                    
                                                                                                    
                                                                                                    
                                                                                                    
                                                                                                    
                                                                                                    
                                                                                                    
                                                                                                    
                                                                                                    
                                                                                                    
                                                                                                    
                                                                                                    
                                                                                                    
                                                                                                    
                                                                                                    
                                                                                                    
                                                                                                    
                                                                                                    
                                                                                                    
                                                                                                    
                           
<?xpacket end="w"?></metadata>
<defs>
    <style>
      .cls-1 {
        fill-rule: evenodd;
      }
    </style>
  </defs>
  <path id="_PLEASE_WAIT_Please_wait_copy_2" data-name=" PLEASE WAIT * Please wait * copy 2" class="cls-1" d="M3563.2,962.581l-4.88,1,1.43,6.953,2.5-.514-0.41-2.027,2.42-.5c1.85-.379,2.83-1.611,2.51-3.169C3566.46,962.83,3565.14,962.184,3563.2,962.581Zm0.04,3.462-1.73.354-0.35-1.734,1.73-.355a0.892,0.892,0,0,1,1.25.641A0.91,0.91,0,0,1,3563.24,966.043Zm6.59,2.852,7.04,0.385,0.1-1.958-4.47-.245,0.28-5.133-2.56-.14Zm12.21-.034,0.32-1.019,4.47,1.433,0.48-1.5-4.46-1.433,0.31-.962,4.62,1.485,0.53-1.638-7.07-2.267-2.17,6.761,7.14,2.289,0.52-1.638Zm11.88,7.794,2.28,1.519,1.19-7.73-2.76-1.841-6.68,4.07,2.29,1.525,1.2-.817,2.77,1.847Zm-1.11-4.21,1.1-.745a7.56,7.56,0,0,0,1.29-.977l0.03,0.016a6.555,6.555,0,0,0-.41,1.566l-0.27,1.3Zm6.99,10.195c1.73,2.039,3.47,2.661,4.73,1.6,1.04-.878.96-1.885-0.2-3.586l-1.04-1.514c-0.4-.594-0.45-0.826-0.24-1.006,0.25-.213.67,0.021,1.22,0.67a4.479,4.479,0,0,1,1.17,2.745l2.05,0.109a7.2,7.2,0,0,0-1.82-3.851c-1.63-1.924-3.22-2.463-4.33-1.527-1.05.891-.99,1.989,0,3.506l1.18,1.78c0.33,0.5.37,0.706,0.17,0.88-0.29.245-.77-0.008-1.45-0.817a4.631,4.631,0,0,1-1.07-3.063l-2.17-.331A6.945,6.945,0,0,0,3599.8,982.64Zm6.71,6.594,0.97-.453,1.98,4.248,1.43-.668-1.98-4.247,0.92-.428,2.05,4.4,1.56-.727-3.14-6.72-6.43,3,3.17,6.783,1.56-.727Zm2.52,13.786-0.03,2.87,3.98,1.42a3.3,3.3,0,0,0,.67.15v0.05a2.346,2.346,0,0,0-.67.15l-4.01,1.32-0.03,2.87,7.07,2.49,0.02-2.56-3.97-1.19a2.981,2.981,0,0,0-.76-0.14v-0.05a3.41,3.41,0,0,0,.76-0.2l4-1.34,0.03-2.7-3.97-1.42a2.993,2.993,0,0,0-.76-0.22v-0.05a2.955,2.955,0,0,0,.76-0.13l4-1.1,0.03-2.57Zm-2.79,18.34-0.89,2.59,7.78-.83,1.08-3.14-5.65-5.42-0.89,2.61,1.1,0.95-1.08,3.15Zm3.78-2.15,1.01,0.87a7.684,7.684,0,0,0,1.27.99l-0.01.03a6.735,6.735,0,0,0-1.62.01l-1.32.07Zm-7.22,8.62,6.07,3.68,1.32-2.19-6.06-3.68Zm-1.18,12.54,5.39-5.93-1.44-1.31-1.84,2.02-3.81-3.47-1.71,1.89,3.81,3.46-1.85,2.03Zm-10.9,5.02,1.2,1.1,0.69-1.45,0.26,1.45,1.57-.91-1.14-.95,1.6,0.13-0.35-1.59-1.36.74,0.69-1.5-1.7-.12,0.24,1.63-1.29-1.03-0.75,1.55,1.65,0.14Zm-12.69,6.19,4.9-.91-1.31-6.98-2.52.47,0.38,2.04-2.42.45c-1.86.35-2.86,1.57-2.57,3.13C3574.77,1051.28,3576.09,1051.95,3578.03,1051.58Zm0.03-3.46,1.72-.32,0.33,1.74-1.74.32a0.893,0.893,0,0,1-1.24-.66A0.916,0.916,0,0,1,3578.06,1048.12Zm-6.53-2.95-7.02-.5-0.14,1.96,4.47,0.31-0.37,5.13,2.56,0.18Zm-12.22-.15-0.34,1.01-4.45-1.5-0.5,1.5,4.44,1.5-0.32.96-4.61-1.55-0.55,1.63,7.04,2.37,2.26-6.73-7.1-2.4-0.55,1.63Zm-11.77-7.99-2.25-1.55-1.32,7.72,2.74,1.88,6.75-3.97-2.27-1.56-1.22.8-2.74-1.89Zm1.05,4.23-1.11.73a8.423,8.423,0,0,0-1.31.96l-0.02-.02a6.736,6.736,0,0,0,.43-1.56l0.29-1.29Zm-6.83-10.31c-1.69-2.07-3.42-2.72-4.7-1.68-1.06.86-.99,1.87,0.14,3.59l1.02,1.53c0.39,0.6.43,0.84,0.22,1.01-0.26.21-.68-0.03-1.21-0.69a4.507,4.507,0,0,1-1.12-2.76l-2.06-.15a7.243,7.243,0,0,0,1.76,3.89c1.6,1.95,3.18,2.51,4.31,1.6,1.07-.88,1.02-1.98.05-3.51l-1.15-1.8c-0.32-.51-0.36-0.71-0.15-0.88,0.3-.24.77,0.02,1.44,0.84a4.672,4.672,0,0,1,1.02,3.08l2.16,0.37A6.925,6.925,0,0,0,3541.76,1030.95Zm-6.6-6.69-0.98.44-1.91-4.28-1.44.64,1.91,4.28-0.92.42-1.99-4.44-1.56.7,3.03,6.78,6.48-2.91-3.06-6.83-1.57.7Zm-2.3-13.84,0.07-2.87-3.96-1.48a3.729,3.729,0,0,0-.66-0.17v-0.05a2.047,2.047,0,0,0,.67-0.13l4.04-1.26,0.07-2.87-7.03-2.6-0.07,2.563,3.96,1.25a3.558,3.558,0,0,0,.76.16l-0.01.05a2.571,2.571,0,0,0-.76.19l-4.02,1.27-0.07,2.7,3.95,1.48a2.832,2.832,0,0,0,.75.23v0.05a2.931,2.931,0,0,0-.76.12l-4.02,1.04-0.07,2.56Zm3.07-18.284,0.93-2.581-7.8.716-1.12,3.127,5.58,5.5,0.92-2.589-1.08-.973,1.12-3.136Zm-3.81,2.1-0.99-.885a7.685,7.685,0,0,0-1.27-1.015l0.01-.028a6.66,6.66,0,0,0,1.62.017l1.33-.057Zm7.36-8.51-6.01-3.772-1.36,2.168,6.01,3.772Zm1.39-12.521-5.49,5.842,1.42,1.335,1.87-1.988,3.75,3.526,1.75-1.858-3.75-3.526,1.87-2Zm10.96-4.832-1.19-1.113-0.71,1.429-0.24-1.448-1.58.884,1.13,0.963-1.6-.149,0.32,1.6,1.37-.722-0.71,1.488,1.7,0.149-0.22-1.632,1.27,1.042,0.77-1.531-1.64-.17Z" transform="translate(-3525.69 -961.813)"/>
</svg>
