<svg xmlns="http://www.w3.org/2000/svg" width="90.5" height="90.12" viewBox="0 0 90.5 90.12">
  <metadata><?xpacket begin="﻿" id="W5M0MpCehiHzreSzNTczkc9d"?>
<x:xmpmeta xmlns:x="adobe:ns:meta/" x:xmptk="Adobe XMP Core 5.6-c142 79.160924, 2017/07/13-01:06:39        ">
   <rdf:RDF xmlns:rdf="http://www.w3.org/1999/02/22-rdf-syntax-ns#">
      <rdf:Description rdf:about=""/>
   </rdf:RDF>
</x:xmpmeta>
                                                                                                    
                                                                                                    
                                                                                                    
                                                                                                    
                                                                                                    
                                                                                                    
                                                                                                    
                                                                                                    
                                                                                                    
                                                                                                    
                                                                                                    
                                                                                                    
                                                                                                    
                                                                                                    
                                                                                                    
                                                                                                    
                                                                                                    
                                                                                                    
                                                                                                    
                                                                                                    
                           
<?xpacket end="w"?></metadata>
<defs>
    <style>
      .cls-1 {
        fill-rule: evenodd;
      }
    </style>
  </defs>
  <path id="Click_to_zoom_click_to_zoom_" data-name="Click to zoom * click to zoom *" class="cls-1" d="M3646.85,1054.66c2.27-.65,3.65-2.04,3.75-3.77l-2.68.16a1.743,1.743,0,0,1-1.51,1.75,1.9,1.9,0,1,1-1.05-3.64,1.755,1.755,0,0,1,2.21.69l2.41-1.21c-0.92-1.46-2.89-1.95-5.14-1.31-2.7.77-4.16,2.84-3.55,5.01C3641.93,1054.55,3644.1,1055.44,3646.85,1054.66Zm5.49-1.5,7.04-.26-0.07-1.96-4.48.17-0.19-5.14-2.56.1Zm10.67,0.32,0.89-7.05-2.54-.32-0.89,7.05Zm5.44,1.58c2.25,0.73,4.17.34,5.21-1.04l-2.31-1.36a1.765,1.765,0,0,1-2.24.61,1.9,1.9,0,1,1,1.16-3.61,1.741,1.741,0,0,1,1.45,1.8l2.68,0.33c0.05-1.71-1.32-3.22-3.55-3.94-2.67-.86-5.04.05-5.73,2.19C3664.42,1052.23,3665.72,1054.19,3668.45,1055.06Zm10.39,4.84,2.47,1.56-0.37-5.35h0.22l3.86-.7-2.58-1.64-4.11.77,1.52-2.41-2.16-1.37-3.8,6,2.17,1.37,0.94-1.49,1.58-.31Zm14.82,4.56-5.27-6.05-1.47,1.28,1.79,2.06-3.88,3.38,1.67,1.93,3.89-3.39,1.8,2.07Zm-3.18,9.17c1.35,2.62,3.52,3.6,5.59,2.53s2.51-3.4,1.16-6.01-3.51-3.61-5.58-2.54S3689.13,1071.02,3690.48,1073.63Zm1.66-.85a1.95,1.95,0,1,1,2.69.98A1.907,1.907,0,0,1,3692.14,1072.78Zm3.61,9.35-1.57.2,1.02,7.98,1.67-.22-0.59-4.63,4.36,3.99,1.57-.2-0.98-7.7-1.67.21,0.56,4.38Zm-1.26,13.18c-0.33,2.92.92,4.94,3.24,5.21s3.99-1.43,4.32-4.36-0.92-4.95-3.23-5.22S3694.83,1092.37,3694.49,1095.31Zm1.85,0.21a1.953,1.953,0,1,1,1.69,2.31A1.92,1.92,0,0,1,3696.34,1095.52Zm-4.4,9.73c-1.11,2.72-.45,5.01,1.71,5.89s4.22-.3,5.33-3.02,0.46-5.02-1.7-5.9S3693.06,1102.52,3691.94,1105.25Zm1.73,0.7a1.951,1.951,0,1,1,1,2.69A1.913,1.913,0,0,1,3693.67,1105.95Zm-3.78,4.79-1.39,1.73,3.04,2.45a7.531,7.531,0,0,0,1.23.86l-0.03.03c-0.32-.14-0.84-0.36-1.39-0.55l-4-1.36-1.49,1.85,2.13,3.7a14.721,14.721,0,0,0,.8,1.26l-0.03.04a8.791,8.791,0,0,0-1.08-1.05l-3.04-2.44-1.46,1.82,5.52,4.45,2.44-3.03-2.03-3.2a4.266,4.266,0,0,0-.54-0.77l0.01-.02a4.122,4.122,0,0,0,.86.36l3.6,1.28,2.38-2.95Zm-11.79,17.91,1.24,1.05,0.63-1.47,0.32,1.44,1.53-.97-1.18-.9,1.61,0.06-0.41-1.57-1.33.79,0.64-1.52-1.71-.06,0.3,1.61-1.32-.97-0.69,1.57,1.65,0.08Zm-11.1-1.23c-2.26.65-3.65,2.03-3.74,3.77l2.68-.17a1.732,1.732,0,0,1,1.51-1.74,1.9,1.9,0,1,1,1.05,3.64,1.755,1.755,0,0,1-2.21-.69l-2.41,1.21c0.92,1.46,2.89,1.95,5.14,1.31,2.7-.77,4.16-2.85,3.55-5.01C3671.93,1127.53,3669.76,1126.63,3667,1127.42Zm-5.48,1.48-7.04.25,0.07,1.96,4.48-.16,0.18,5.14,2.56-.09Zm-10.67-.34-0.9,7.04,2.53,0.33,0.91-7.04Zm-5.44-1.59c-2.24-.73-4.16-0.35-5.21,1.03l2.32,1.36a1.738,1.738,0,0,1,2.23-.6,1.9,1.9,0,1,1-1.16,3.6,1.741,1.741,0,0,1-1.45-1.8l-2.67-.34c-0.06,1.72,1.31,3.23,3.53,3.95,2.67,0.86,5.05-.04,5.74-2.18C3649.45,1129.8,3648.14,1127.85,3645.41,1126.97Zm-10.38-4.86-2.46-1.57,0.36,5.35h-0.22l-3.87.69,2.58,1.65,4.12-.77-1.53,2.41,2.16,1.37,3.81-5.99-2.16-1.37-0.95,1.49-1.59.31Zm-14.8-4.61,5.25,6.07,1.47-1.28-1.78-2.06,3.89-3.38-1.67-1.93-3.89,3.38-1.8-2.08Zm3.19-9.16c-1.35-2.61-3.51-3.6-5.58-2.53s-2.52,3.4-1.17,6.01,3.51,3.61,5.58,2.55S3624.77,1110.96,3623.42,1108.34Zm-1.65.86a1.952,1.952,0,1,1-2.69-.99A1.921,1.921,0,0,1,3621.77,1109.2Zm-3.6-9.37,1.58-.19-1-7.99-1.67.21,0.58,4.64-4.35-4.01-1.58.2,0.96,7.71,1.68-.21-0.55-4.39Zm1.3-13.17c0.34-2.92-.9-4.94-3.22-5.21s-3.99,1.41-4.33,4.33,0.9,4.96,3.21,5.23S3619.13,1089.59,3619.47,1086.66Zm-1.85-.21a1.95,1.95,0,1,1-1.68-2.32A1.919,1.919,0,0,1,3617.62,1086.45Zm4.42-9.72c1.11-2.72.46-5.01-1.69-5.89s-4.23.28-5.34,3-0.47,5.02,1.68,5.9S3620.92,1079.45,3622.04,1076.73Zm-1.72-.71a1.951,1.951,0,1,1-1-2.69A1.926,1.926,0,0,1,3620.32,1076.02Zm3.79-4.81,1.4-1.73-3.03-2.46a7.531,7.531,0,0,0-1.23-.86l0.03-.03c0.32,0.14.84,0.36,1.39,0.55l4,1.37,1.5-1.85-2.13-3.71a12.824,12.824,0,0,0-.79-1.26l0.03-.04a9.724,9.724,0,0,0,1.08,1.06l3.03,2.45,1.48-1.81-5.52-4.48-2.45,3.02,2.02,3.21a4.039,4.039,0,0,0,.54.78l-0.01.02a4.122,4.122,0,0,0-.86-0.36l-3.6-1.29-2.39,2.94Zm11.82-17.85-1.24-1.05-0.63,1.46-0.32-1.43-1.53.96,1.17,0.9-1.6-.06,0.4,1.57,1.34-.79-0.64,1.53,1.7,0.06-0.29-1.62,1.32,0.98,0.69-1.57-1.65-.09Z" transform="translate(-3611.72 -1045.97)"/>
</svg>
