<svg version="1.1" xmlns="http://www.w3.org/2000/svg" xmlns:xlink="http://www.w3.org/1999/xlink" style="" xml:space="preserve" width="32" height="49"><rect id="backgroundrect" width="100%" height="100%" x="0" y="0" fill="none" stroke="none" style="" class=""/>

<g class="currentLayer" style=""><title>Layer 1</title><g id="svg_1" class="" transform="rotate(-179.694, 15.2, 19.9474)">
	<path fill="#000000" d="M30.30000114440918,6.147369384765625 c0,-0.20000000298023224 -0.10000000149011612,-0.30000001192092896 -0.30000001192092896,-0.5 L15.700000762939453,-8.2526313662529 c-0.30000001192092896,-0.30000001192092896 -0.800000011920929,-0.30000001192092896 -1.100000023841858,0 L0.30000001192092896,5.647369384765625 c-0.30000001192092896,0.30000001192092896 -0.30000001192092896,0.800000011920929 0,1.2000000476837158 c0.30000001192092896,0.30000001192092896 0.800000011920929,0.30000001192092896 1.100000023841858,0 l13,-12.600000381469727 v53.400001525878906 c0,0.4000000059604645 0.4000000059604645,0.800000011920929 0.800000011920929,0.800000011920929 c0.4000000059604645,0 0.800000011920929,-0.4000000059604645 0.800000011920929,-0.800000011920929 V-5.752631425857544 l13,12.600000381469727 C29.399999618530273,7.347369194030762 30.399999618530273,6.847369194030762 30.30000114440918,6.147369384765625 L30.30000114440918,6.147369384765625 z" id="svg_2"/>
</g></g></svg>